<svg width="43" height="43" viewBox="0 0 43 43" fill="none" xmlns="http://www.w3.org/2000/svg">
<path d="M26.2187 9.375C28.0501 9.73231 29.7332 10.628 31.0526 11.9474C32.372 13.2668 33.2676 14.9499 33.6249 16.7812L26.2187 9.375ZM26.2187 1.875C30.0236 2.29769 33.5717 4.00158 36.2804 6.70689C38.9891 9.4122 40.6974 12.9581 41.1249 16.7625L26.2187 1.875ZM39.2499 31.725V37.35C39.2521 37.8722 39.1451 38.3891 38.9359 38.8675C38.7267 39.346 38.4199 39.7755 38.0351 40.1285C37.6503 40.4815 37.196 40.7503 36.7013 40.9176C36.2067 41.0849 35.6825 41.147 35.1624 41.1C29.3927 40.4731 23.8506 38.5015 18.9812 35.3437C14.4509 32.465 10.6099 28.6241 7.73119 24.0937C4.56239 19.2023 2.59039 13.6331 1.97494 7.8375C1.92808 7.319 1.9897 6.79643 2.15587 6.30305C2.32205 5.80967 2.58913 5.35629 2.94012 4.97179C3.29111 4.58729 3.71832 4.28008 4.19454 4.06973C4.67077 3.85938 5.18557 3.75049 5.70619 3.75H11.3312C12.2411 3.74104 13.1233 4.06327 13.8132 4.65662C14.5032 5.24997 14.9538 6.07396 15.0812 6.975C15.3186 8.77512 15.7589 10.5426 16.3937 12.2437C16.646 12.9149 16.7006 13.6442 16.551 14.3454C16.4015 15.0466 16.0541 15.6902 15.5499 16.2L13.1687 18.5812C15.8379 23.2754 19.7245 27.1621 24.4187 29.8312L26.7999 27.45C27.3097 26.9459 27.9533 26.5985 28.6545 26.4489C29.3557 26.2994 30.0851 26.354 30.7562 26.6062C32.4573 27.241 34.2248 27.6813 36.0249 27.9187C36.9357 28.0472 37.7676 28.506 38.3622 29.2078C38.9568 29.9096 39.2727 30.8055 39.2499 31.725Z" stroke="#131313" stroke-width="3" stroke-linecap="round" stroke-linejoin="round"/>
</svg>
