<svg width="20" height="20" viewBox="0 0 20 20" fill="none" xmlns="http://www.w3.org/2000/svg">
<path d="M5.83317 18.3332H3.33317C2.89114 18.3332 2.46722 18.1576 2.15466 17.845C1.8421 17.5325 1.6665 17.1085 1.6665 16.6665V10.8332C1.6665 10.3911 1.8421 9.96722 2.15466 9.65466C2.46722 9.3421 2.89114 9.1665 3.33317 9.1665H5.83317M11.6665 7.49984V4.1665C11.6665 3.50346 11.4031 2.86758 10.9343 2.39874C10.4654 1.9299 9.82954 1.6665 9.1665 1.6665L5.83317 9.1665V18.3332H15.2332C15.6351 18.3377 16.0252 18.1968 16.3314 17.9365C16.6377 17.6762 16.8396 17.3139 16.8998 16.9165L18.0498 9.4165C18.0861 9.17763 18.07 8.93374 18.0026 8.70171C17.9353 8.46969 17.8183 8.25508 17.6597 8.07277C17.5012 7.89045 17.3049 7.74478 17.0845 7.64585C16.8641 7.54692 16.6248 7.4971 16.3832 7.49984H11.6665Z" stroke="#131313" stroke-width="2" stroke-linecap="round" stroke-linejoin="round"/>
</svg>
