<svg width="50" height="50" viewBox="0 0 50 50" fill="none" xmlns="http://www.w3.org/2000/svg">
<g clip-path="url(#clip0)">
<path d="M20.748 22.5163H24.0815V24.1833H20.748V22.5163Z" fill="white"/>
<path d="M49.2015 20.0247L43.5404 19.2163C42.5082 18.5821 41.4369 18.0145 40.3325 17.5163C36.685 15.8642 32.7263 15.0117 28.7218 15.0161H27.7383C23.0125 15.0195 18.3624 16.2053 14.2117 18.4655L11.3547 20.024C8.01042 20.0617 4.73057 20.9511 1.8251 22.6073C0.644324 23.2845 -0.0847573 24.5409 -0.086792 25.9018V30.8504C-0.086792 31.3109 0.286226 31.6839 0.746734 31.6839H3.54505C4.45522 34.2804 7.29795 35.6477 9.8945 34.7375C11.3238 34.2367 12.4473 33.1129 12.9482 31.6839H35.214C36.1241 34.2804 38.9669 35.6477 41.5634 34.7375C42.9924 34.2367 44.1162 33.1129 44.6171 31.6839H44.9162C45.0223 31.6839 45.1274 31.6639 45.2261 31.6245L47.9254 30.5414C49.1313 30.064 49.9211 28.8968 49.9167 27.6004V20.8497C49.9167 20.4353 49.6118 20.0837 49.2015 20.0247ZM11.5131 30.6839C11.1445 32.4876 9.38347 33.651 7.57975 33.2824C5.7757 32.9138 4.61222 31.1528 4.98083 29.3488C5.34978 27.5451 7.11077 26.3816 8.91448 26.7502C10.4666 27.0673 11.5809 28.4329 11.5805 30.0172C11.5805 30.241 11.5578 30.4645 11.5131 30.6839ZM26.5816 30.0172H13.2473C13.2473 27.2555 11.0088 25.0167 8.24712 25.0167C5.48542 25.0167 3.24664 27.2555 3.24664 30.0172H1.57992V25.9018C1.58094 25.1384 1.9899 24.4334 2.65252 24.0543C5.37216 22.5015 8.44922 21.6843 11.5805 21.6833H26.5816V30.0172ZM26.5816 20.0165H14.8492L15.0099 19.9287C18.5729 17.9924 22.5307 16.8947 26.5816 16.7194V20.0165ZM28.2484 16.6828H28.7201C32.0786 16.6791 35.4066 17.3166 38.526 18.5614L37.0709 20.0165H28.2484V16.6828ZM43.182 30.6839C42.8134 32.4876 41.0524 33.651 39.2483 33.2824C37.4446 32.9138 36.2811 31.1528 36.6498 29.3488C37.0184 27.5451 38.7797 26.3816 40.5834 26.7502C42.1355 27.0673 43.2498 28.4329 43.2495 30.0172C43.2495 30.241 43.2267 30.4645 43.182 30.6839ZM48.2499 22.5165H45.7497V24.1835H48.2499V27.6004C48.252 28.2145 47.8776 28.7672 47.3065 28.9927L44.9162 29.9527C44.9162 29.8761 44.9063 29.8001 44.9013 29.7235C44.8962 29.6469 44.8945 29.557 44.8863 29.4736C44.8779 29.3902 44.8612 29.3067 44.848 29.2237C44.8345 29.1402 44.8246 29.0568 44.808 28.9812C44.7914 28.9052 44.767 28.8211 44.7453 28.7418C44.7236 28.6628 44.707 28.5827 44.6819 28.5051C44.6571 28.4278 44.6269 28.3535 44.5988 28.2775C44.5703 28.2019 44.5445 28.1236 44.5154 28.0483C44.4862 27.9734 44.4469 27.9052 44.4119 27.8343C44.377 27.7635 44.3428 27.6858 44.3038 27.6143C44.2644 27.5427 44.2203 27.4817 44.1827 27.4152C44.1454 27.3484 44.0996 27.2724 44.0521 27.2043C44.0043 27.1358 43.9602 27.0819 43.9145 27.0201C43.8687 26.9584 43.8168 26.8859 43.7636 26.8218C43.7103 26.7577 43.6605 26.7075 43.6086 26.6549C43.557 26.6027 43.4994 26.5318 43.4421 26.4735C43.3844 26.4152 43.3278 26.3691 43.2705 26.3175C43.2128 26.266 43.1511 26.2049 43.0877 26.1507C43.0246 26.0967 42.9602 26.055 42.8971 26.0076C42.8337 25.9601 42.7703 25.9092 42.7038 25.8648C42.637 25.8207 42.5621 25.7817 42.4905 25.7349C42.4187 25.6881 42.3603 25.6515 42.2928 25.6159C42.2254 25.5799 42.1413 25.5423 42.0646 25.5057C41.988 25.4691 41.928 25.4365 41.8571 25.4067C41.7862 25.3765 41.6903 25.3449 41.6072 25.3151C41.5237 25.2849 41.4695 25.2615 41.3986 25.2391C41.3037 25.21 41.2063 25.189 41.1094 25.1649C41.0459 25.15 40.9852 25.13 40.9212 25.1167C40.8187 25.0957 40.7136 25.0842 40.6095 25.0689C40.5478 25.0608 40.4888 25.0472 40.4271 25.0414C40.2602 25.0248 40.0937 25.0157 39.9188 25.0157C37.1581 25.0184 34.921 27.2555 34.9183 30.0162H28.2487V21.6829H37.4158C37.6369 21.6829 37.8488 21.5951 38.0048 21.4388L40.166 19.2776C41.0731 19.7093 41.9551 20.1919 42.8079 20.7229C42.9063 20.7843 43.0162 20.8246 43.1311 20.8413L48.2499 21.572V22.5165Z" fill="white"/>
</g>
<defs>
<clipPath id="clip0">
<rect width="50" height="50" fill="white"/>
</clipPath>
</defs>
</svg>
