<svg width="40" height="40" viewBox="0 0 40 40" fill="none" xmlns="http://www.w3.org/2000/svg">
<path d="M38.1818 21.8182C37.6364 21.8182 37.2728 22.1818 37.2728 22.7272V34.5454C37.2728 35.0909 36.9091 35.4545 36.3637 35.4545H3.63637C3.0909 35.4545 2.7273 35.0908 2.7273 34.5454V22.7272C2.7273 22.1818 2.36363 21.8182 1.81824 21.8182C1.27285 21.8182 0.90918 22.1818 0.90918 22.7272V34.5454C0.90918 36.0909 2.09098 37.2727 3.63645 37.2727H36.3637C37.9092 37.2727 39.091 36.0909 39.091 34.5454V22.7272C39.091 22.1818 38.7273 21.8182 38.1818 21.8182Z" fill="white"/>
<path d="M37.2727 9.09113H2.72727C1.1818 9.09113 0 10.2729 0 11.8184V17.6366C0 18.9092 0.909063 20.0002 2.09094 20.2729L16.3637 23.4547V26.3638C16.3637 26.9092 16.7273 27.2728 17.2727 27.2728H22.7273C23.2727 27.2728 23.6363 26.9092 23.6363 26.3638V23.4547L37.9091 20.2729C39.0909 20.0002 40 18.9092 40 17.6365V11.8183C40 10.2729 38.8182 9.09113 37.2727 9.09113ZM21.8182 25.4547H18.1819V21.8184H21.8182V25.4547ZM38.1818 17.6365C38.1818 18.091 37.9091 18.4547 37.4545 18.5456L23.6363 21.6365V20.9092C23.6363 20.3638 23.2727 20.0002 22.7273 20.0002H17.2727C16.7273 20.0002 16.3637 20.3638 16.3637 20.9092V21.6365L2.54547 18.5456C2.09094 18.4547 1.8182 18.0911 1.8182 17.6366V11.8184C1.8182 11.2729 2.18187 10.9093 2.72727 10.9093H37.2727C37.8182 10.9093 38.1818 11.273 38.1818 11.8184V17.6365Z" fill="white"/>
<path d="M24.5455 2.72723H15.4546C13.9091 2.72723 12.7273 3.90903 12.7273 5.4545V6.36356C12.7273 6.90903 13.091 7.27262 13.6364 7.27262C14.1817 7.27262 14.5454 6.90895 14.5454 6.36356V5.4545C14.5454 4.90903 14.9091 4.54544 15.4545 4.54544H24.5454C25.0909 4.54544 25.4545 4.90911 25.4545 5.4545V6.36356C25.4545 6.90903 25.8182 7.27262 26.3635 7.27262C26.909 7.27262 27.2726 6.90895 27.2726 6.36356V5.4545C27.2728 3.90903 26.091 2.72723 24.5455 2.72723Z" fill="white"/>
</svg>
