<svg width="40" height="40" viewBox="0 0 40 40" fill="none" xmlns="http://www.w3.org/2000/svg">
<g clip-path="url(#clip0)">
<path d="M33.3333 19.9952C33.7015 19.9952 34 19.6967 34 19.3286V9.99524H39.3333C39.7015 9.99524 40 9.69674 40 9.32858V6.66191C39.9966 6.63716 39.9917 6.61274 39.9853 6.58858C39.9811 6.54033 39.9715 6.49266 39.9567 6.44658C39.9443 6.41266 39.9292 6.37991 39.9113 6.34858C39.8512 6.23491 39.7583 6.14199 39.6447 6.08191C39.6113 6.06324 39.5763 6.04766 39.54 6.03524C39.5207 6.02858 39.5053 6.01591 39.4853 6.01124L14.152 0.0112409C14.1022 7.42171e-05 14.0512 -0.00525912 14 -0.00475912H11.3333C11.2545 -0.00300912 11.1766 0.0127409 11.1033 0.0419076C11.0853 0.0485742 11.0687 0.0545742 11.0513 0.0625742C11.034 0.0705742 11.0207 0.0725742 11.006 0.0805742L0.339333 6.08058C0.306417 6.10258 0.275667 6.12757 0.247333 6.15524C0.225417 6.17083 0.2045 6.18774 0.184667 6.20591C0.128833 6.26274 0.08375 6.32916 0.0513333 6.40191V6.40991C0.02225 6.48316 0.00641667 6.56108 0.00466667 6.63991C0.00466667 6.64799 0 6.65458 0 6.66258V9.32924C0 9.69741 0.2985 9.99591 0.666667 9.99591H10V22.3859L7.52867 24.8572C7.40367 24.9822 7.33333 25.1517 7.33333 25.3286V35.9952H6V39.9952H19.3333V35.9952H18V25.3286C18 25.1517 17.9297 24.9822 17.8047 24.8572L15.3333 22.3859V9.99524H28.6667V19.3286C28.6667 19.6967 28.9652 19.9952 29.3333 19.9952H30.6667V21.9952C30.6667 22.3634 30.9652 22.6619 31.3333 22.6619C32.0698 22.6619 32.6667 23.2588 32.6667 23.9952C32.6667 24.7317 32.0698 25.3286 31.3333 25.3286C30.5969 25.3286 30 24.7317 30 23.9952V23.3286H28.6667V23.9952C28.6701 24.9685 29.2051 25.862 30.0613 26.3246L25.0573 31.3286H23.3333C22.9652 31.3286 22.6667 31.6271 22.6667 31.9952V37.9952C22.6667 38.3634 22.9652 38.6619 23.3333 38.6619H39.3333C39.7015 38.6619 40 38.3634 40 37.9952V31.9952C40 31.6271 39.7015 31.3286 39.3333 31.3286H37.6093L32.6053 26.3246C33.8966 25.6286 34.3791 24.0177 33.6832 22.7264C33.3306 22.0723 32.7202 21.5958 32 21.4126V19.9952H33.3333ZM34 7.32858H38.6667V8.66191H34V7.32858ZM38.6667 32.6619V37.3286H24V32.6619H38.6667ZM35.724 31.3286H26.9427L31.3333 26.938L35.724 31.3286ZM32.6667 15.9952H30V9.99524H32.6667V15.9952ZM32.6667 8.66191H30V7.32858H32.6667V8.66191ZM12 1.32857H13.3333V5.99524H12V1.32857ZM11.3333 7.32858H14V8.38591L13.724 8.66191H11.3333V7.32858ZM14 10.2712V15.0526L11.6093 12.6619L14 10.2712ZM11.3333 9.99524H12.3907L11.3333 11.0526V9.99524ZM11.3333 14.2713L13.724 16.6619L11.3333 19.0526V14.2713ZM14 18.2713V22.6619V23.0526L11.6093 20.6619L14 18.2713ZM11.3333 22.6619V22.2712L13.724 24.6619L11.3333 27.0526V22.6619ZM14 26.2713V31.0527L11.6093 28.6619L14 26.2713ZM11.3333 30.2713L13.724 32.6619L11.3333 35.0526V30.2713ZM14 34.2713V35.9952H12.276L14 34.2713ZM10.6667 1.80191V5.99524H3.21133L10.6667 1.80191ZM1.33333 8.66191V7.32858H10V8.66191H1.33333ZM8.66667 25.6047L10 24.2713V35.9952H8.66667V25.6047ZM18 37.3286V38.6619H7.33333V37.3286H18ZM16.6667 25.6047V35.9952H15.3333V24.2713L16.6667 25.6047ZM28.6667 8.66191H15.3333V7.32858H28.6667V8.66191ZM14.6667 5.99524V1.50457L33.626 5.99524H33.3333H14.6667ZM30 18.6619V17.3286H32.6667V18.6619H30Z" fill="white"/>
</g>
<defs>
<clipPath id="clip0">
<rect width="40" height="40" fill="white"/>
</clipPath>
</defs>
</svg>
