<svg width="40" height="40" viewBox="0 0 40 40" fill="none" xmlns="http://www.w3.org/2000/svg">
<g clip-path="url(#clip0)">
<path d="M25.7044 4.94272C25.3024 2.12506 22.8498 0 19.9997 0C18.1668 0 16.4261 0.884466 15.3438 2.36679C15.1228 2.66909 15.1889 3.09315 15.4912 3.31422C15.7925 3.53449 16.2176 3.46914 16.4382 3.16644C17.2667 2.0329 18.5979 1.356 19.9995 1.356C22.1792 1.356 24.0544 2.98033 24.3619 5.134C24.4104 5.47225 24.7005 5.71636 25.0324 5.71636C25.064 5.71636 25.0966 5.71397 25.129 5.7096C25.4996 5.65657 25.7572 5.31315 25.7044 4.94272Z" fill="white"/>
<path d="M35.4963 12.5322L33.4624 9.14235C33.34 8.93797 33.1194 8.81323 32.881 8.81323H30.9319C30.5577 8.81323 30.254 9.11693 30.254 9.49113C30.254 9.86534 30.5577 10.169 30.9319 10.169H32.4973L33.7176 12.2029H6.28169L7.50203 10.169H8.22005C8.59425 10.169 8.89795 9.86534 8.89795 9.49113C8.89795 9.11693 8.59425 8.81323 8.22005 8.81323H7.11829C6.87994 8.81323 6.65927 8.93797 6.53692 9.14235L4.50303 12.5322C4.3773 12.742 4.37432 13.0028 4.49448 13.2153C4.61465 13.4278 4.83989 13.5593 5.08439 13.5593H34.9149C35.1594 13.5593 35.3845 13.4278 35.5048 13.2153C35.6252 13.0028 35.622 12.7416 35.4963 12.5322Z" fill="white"/>
<path d="M32.1169 6.2811C32.022 6.12796 31.8704 6.01931 31.6952 5.9784L22.4531 3.81679C22.2781 3.77567 22.0938 3.80626 21.9409 3.90081C21.7883 3.99575 21.6795 4.1473 21.6386 4.32248L20.9416 7.30182C20.8562 7.66629 21.0826 8.03096 21.4473 8.11597C21.8118 8.20138 22.1768 7.97495 22.2618 7.61028L22.8045 5.29136L30.7261 7.14431L29.4814 12.4664C29.396 12.8309 29.6224 13.1955 29.9871 13.2806C30.0393 13.2927 30.0912 13.2984 30.1424 13.2984C30.4503 13.2984 30.7289 13.0875 30.8014 12.7751L32.2007 6.79295C32.242 6.61796 32.2118 6.43364 32.1169 6.2811Z" fill="white"/>
<path d="M20.3582 7.88373L19.7405 2.65897C19.7194 2.48041 19.6283 2.31734 19.4868 2.20611C19.3454 2.09488 19.1669 2.04403 18.9875 2.06509L7.64815 3.40539C7.27653 3.44948 7.01077 3.78635 7.05467 4.15837L8.08453 12.8725C8.12544 13.2175 8.41801 13.4712 8.75706 13.4712C8.78348 13.4712 8.81069 13.4694 8.8377 13.4664C9.20913 13.4223 9.47488 13.0855 9.43119 12.7134L8.48078 4.67201L18.4737 3.491L19.0115 8.04243C19.0556 8.41425 19.3909 8.67842 19.7645 8.63631C20.1361 8.59262 20.4019 8.25556 20.3582 7.88373Z" fill="white"/>
<path d="M25.72 12.6236L24.3744 7.02758C24.3323 6.85299 24.2224 6.70184 24.0693 6.60789C23.9161 6.51474 23.7324 6.48554 23.5566 6.52725L12.635 9.15383C12.2709 9.24123 12.0469 9.60749 12.1343 9.97156L12.8068 12.7686C12.8942 13.133 13.2604 13.3573 13.6243 13.2693C13.9884 13.1819 14.2124 12.8156 14.125 12.4516L13.6108 10.3136L23.2142 8.0044L24.4014 12.941C24.4759 13.2518 24.7539 13.4604 25.06 13.4604C25.1126 13.4604 25.1659 13.4542 25.2193 13.4413C25.5834 13.3537 25.8074 12.9876 25.72 12.6236Z" fill="white"/>
<path d="M35.5926 12.8468C35.5739 12.4865 35.2764 12.2036 34.9153 12.2036H5.08473C4.72363 12.2036 4.4261 12.4863 4.40743 12.8468L3.05143 39.2874C3.0419 39.4729 3.10903 39.6545 3.23694 39.7891C3.36506 39.9236 3.54262 40.0001 3.72853 40.0001H36.2709C36.4566 40.0001 36.6343 39.9238 36.763 39.7891C36.8908 39.6545 36.9579 39.4731 36.9486 39.2874L35.5926 12.8468ZM4.44199 38.6441L5.72847 13.5594H34.2707L35.5572 38.6441H4.44199Z" fill="white"/>
<path d="M25.0844 14.9153C23.9628 14.9153 23.0505 15.8276 23.0505 16.9492C23.0505 18.0709 23.9628 18.9831 25.0844 18.9831C26.2061 18.9831 27.1183 18.0709 27.1183 16.9492C27.1183 15.8276 26.2061 14.9153 25.0844 14.9153ZM25.0844 17.6273C24.7104 17.6273 24.4065 17.3232 24.4065 16.9494C24.4065 16.5756 24.7106 16.2715 25.0844 16.2715C25.4582 16.2715 25.7623 16.5756 25.7623 16.9494C25.7623 17.3232 25.4582 17.6273 25.0844 17.6273Z" fill="white"/>
<path d="M14.9149 14.9153C13.7933 14.9153 12.881 15.8276 12.881 16.9492C12.881 18.0709 13.7933 18.9831 14.9149 18.9831C16.0365 18.9831 16.9488 18.0709 16.9488 16.9492C16.9488 15.8276 16.0365 14.9153 14.9149 14.9153ZM14.9149 17.6273C14.5411 17.6273 14.237 17.3232 14.237 16.9494C14.237 16.5756 14.5411 16.2715 14.9149 16.2715C15.2887 16.2715 15.5928 16.5756 15.5928 16.9494C15.5928 17.3232 15.2887 17.6273 14.9149 17.6273Z" fill="white"/>
<path d="M25.0844 16.9491H25.0322C24.658 16.9491 24.3543 17.2528 24.3543 17.627C24.3543 17.7195 24.3726 17.8079 24.4065 17.8884V21.3557C24.4065 23.7855 22.4296 25.7625 19.9997 25.7625C17.5697 25.7625 15.5929 23.7856 15.5929 21.3557V17.6272C15.5929 17.253 15.2892 16.9493 14.915 16.9493C14.5408 16.9493 14.2371 17.253 14.2371 17.6272V21.3559C14.2371 24.5335 16.8221 27.1185 19.9997 27.1185C23.1773 27.1185 25.7623 24.5335 25.7623 21.3559V17.6272C25.7623 17.253 25.4586 16.9491 25.0844 16.9491Z" fill="white"/>
</g>
<defs>
<clipPath id="clip0">
<rect width="40" height="40" fill="white"/>
</clipPath>
</defs>
</svg>
