<svg width="40" height="40" viewBox="0 0 40 40" fill="none" xmlns="http://www.w3.org/2000/svg">
<g clip-path="url(#clip0)">
<path d="M39.1142 6.74571L20.4542 0.0790394C20.1595 -0.024963 19.8381 -0.024963 19.5435 0.0790394L0.888157 6.74571C0.35941 6.9363 0.00695801 7.43799 0.00695801 8.00004C0.00695801 8.56209 0.35941 9.06379 0.888157 9.25438L10.0015 12.5104V16.667C10.0015 19.259 18.9782 19.3337 20.0015 19.3337C21.0248 19.3337 30.0015 19.259 30.0015 16.667V12.5104L32.0015 11.8004V13.3337C32.0015 14.0701 32.5984 14.667 33.3348 14.667H34.6682C35.4045 14.667 36.0015 14.0701 36.0015 13.3337V11.3337C35.9995 11.025 35.9251 10.7211 35.7842 10.4464L39.1175 9.25438C39.6462 9.06379 39.9987 8.56209 39.9987 8.00004C39.9987 7.43799 39.6462 6.9363 39.1175 6.74571H39.1142ZM28.6682 15.2004C26.1288 14.0444 20.7782 14.0004 20.0015 14.0004C19.2248 14.0004 13.8742 14.0444 11.3348 15.2004V9.39238C11.7348 8.87904 14.8788 8.00038 20.0015 8.00038C25.1242 8.00038 28.2682 8.87904 28.6682 9.39238V15.2004ZM20.0015 18.0004C15.0682 18.0004 11.9702 17.1857 11.3908 16.667C11.9702 16.1484 15.0695 15.3337 20.0015 15.3337C24.9335 15.3337 28.0328 16.1484 28.6122 16.667C28.0328 17.1857 24.9348 18.0004 20.0015 18.0004ZM32.3142 10.2704L30.0015 11.095V9.33371C30.0015 6.74171 21.0248 6.66704 20.0015 6.66704C18.9782 6.66704 10.0015 6.74171 10.0015 9.33371V11.0944L1.33482 8.00038L20.0108 1.33371L33.3348 6.09504V9.45638C32.9133 9.60618 32.554 9.89272 32.3142 10.2704ZM34.6682 13.3337H33.3348V11.3337C33.3348 10.9655 33.6333 10.667 34.0015 10.667C34.3697 10.667 34.6682 10.9655 34.6682 11.3337V13.3337ZM34.6682 9.42971V6.57171L38.6682 8.00038L34.6682 9.42971Z" fill="white"/>
<path d="M38 20.6668C37.96 20.6667 37.92 20.6702 37.8807 20.6774C31.9656 21.5971 25.986 22.0394 20 22.0001C14.014 22.0394 8.03445 21.5971 2.11933 20.6774C2.0799 20.6707 2.04 20.6672 2 20.6668C1.53333 20.6668 0 21.1954 0 28.0001C0 34.8048 1.53333 35.3334 2 35.3334C2.04003 35.3326 2.07993 35.3286 2.11933 35.3214C6.66447 34.6015 11.2523 34.1833 15.8527 34.0694L14.5513 37.1908C14.3514 37.6906 14.473 38.2616 14.8591 38.6366C15.2452 39.0117 15.8196 39.1165 16.3133 38.9021L16.8233 38.6841L17.044 39.1914C17.2524 39.6834 17.7357 40.0021 18.27 40.0001H18.2867C18.8249 39.9959 19.3075 39.6674 19.5087 39.1681L20.6667 36.3961L21.8207 39.1574C22.0201 39.6614 22.5047 39.9945 23.0467 40.0001H23.0667C23.5973 40.0023 24.078 39.6874 24.288 39.2001L24.5107 38.6888L25.0127 38.9041C25.5086 39.123 26.0877 39.0187 26.4761 38.6406C26.8645 38.2625 26.9842 37.6863 26.7787 37.1848L25.5027 34.1248C29.6504 34.2716 33.7853 34.6724 37.884 35.3248C37.9223 35.3311 37.9612 35.334 38 35.3334C38.4667 35.3334 40 34.8048 40 28.0001C40 21.1954 38.4667 20.6668 38 20.6668ZM22.1333 23.3134C22.4102 24.3314 22.5714 25.3774 22.614 26.4314C21.1024 25.7286 19.3295 25.8933 17.9733 26.8628C17.9392 25.6656 17.7858 24.4748 17.5153 23.3081C18.3229 23.325 19.1511 23.3334 20 23.3334C20.7287 23.3334 21.436 23.3254 22.1333 23.3134ZM20.6667 34.0001C18.8257 34.0001 17.3333 32.5077 17.3333 30.6668C17.3333 28.8258 18.8257 27.3334 20.6667 27.3334C22.5076 27.3334 24 28.8258 24 30.6668C23.9978 32.5068 22.5067 33.9979 20.6667 34.0001ZM2 22.3334C2.51081 24.1771 2.73565 26.0882 2.66667 28.0001C2.73565 29.912 2.51081 31.8231 2 33.6668C1.48919 31.8231 1.26435 29.912 1.33333 28.0001C1.26435 26.0882 1.48919 24.1771 2 22.3334ZM3.34667 33.7801C3.71133 32.7228 4 30.9534 4 28.0001C4 25.0468 3.71133 23.2774 3.346 22.2188C7.58239 22.8039 11.8477 23.1562 16.1227 23.2741C16.5225 24.8165 16.7056 26.4072 16.6667 28.0001C16.6667 28.0968 16.6667 28.1888 16.6627 28.2814C15.8626 29.6092 15.782 31.2497 16.448 32.6494L16.4187 32.7201C12.0448 32.8273 7.68052 33.1817 3.34667 33.7814V33.7801ZM18.2713 38.6668L17.7847 37.5468C17.6383 37.2105 17.2478 37.0556 16.9107 37.2001L15.7887 37.6961L17.352 33.9481C17.9938 34.5985 18.8126 35.0459 19.7067 35.2348L18.2713 38.6668ZM24.4227 37.2001C24.0856 37.0556 23.695 37.2105 23.5487 37.5468L23.0553 38.6554L21.626 35.2334C22.5207 35.0445 23.3402 34.5968 23.9827 33.9461L25.5427 37.6794L24.4227 37.2001ZM37.8667 33.9668C33.5835 33.3076 29.2646 32.9069 24.9333 32.7668L24.886 32.6521C25.7244 30.8854 25.365 28.7827 23.9873 27.3948C23.9822 26.0122 23.8225 24.6345 23.5113 23.2874C28.3185 23.1798 33.1137 22.7607 37.8667 22.0328C38.176 22.5581 38.6667 24.6361 38.6667 28.0001C38.6667 31.3641 38.1727 33.4414 37.8667 33.9668Z" fill="white"/>
</g>
<defs>
<clipPath id="clip0">
<rect width="40" height="40" fill="white"/>
</clipPath>
</defs>
</svg>
