<svg width="40" height="40" viewBox="0 0 40 40" fill="none" xmlns="http://www.w3.org/2000/svg">
<g clip-path="url(#clip0)">
<path d="M38.7684 13.7956C35.528 3.44487 24.4735 -2.33957 14.1207 0.899483C3.76928 4.13987 -2.01586 15.197 1.2239 25.5477L2.49593 25.1493C-0.524615 15.5002 4.86873 5.19197 14.5192 2.17081C19.1942 0.708233 24.159 1.15331 28.4975 3.42354C32.838 5.6951 36.0337 9.51978 37.497 14.1941C38.9596 18.8684 38.5152 23.8326 36.2443 28.1725C33.9741 32.5129 30.1494 35.7087 25.4744 37.172C17.6496 39.6207 9.07263 36.5283 4.61155 29.6504L3.49342 30.3754C7.18092 36.0619 13.4924 39.3363 20.0351 39.3356C21.9808 39.3356 23.9485 39.0464 25.8722 38.4427C30.8863 36.8735 34.989 33.4452 37.4251 28.7902C39.8612 24.1351 40.3376 18.8098 38.7684 13.7956Z" fill="white"/>
<path d="M16.1344 9.32888L16.5169 8.05217L9.85354 6.05319C9.62034 5.98256 9.3651 6.04655 9.1912 6.22045L7.85854 7.55311C7.70331 7.70834 7.63464 7.93021 7.67464 8.14615C7.71464 8.36201 7.85854 8.54396 8.05909 8.63326L14.0561 11.2986L14.5972 10.0805L9.48713 7.80896L9.85229 7.44381L16.1344 9.32888Z" fill="white"/>
<path d="M22.3239 5.35964C22.3239 4.99183 22.026 4.69331 21.6576 4.69331C21.6569 4.69331 21.6569 4.69331 21.6563 4.69331C20.1903 4.69331 18.8117 5.26433 17.7749 6.3012L12.1244 11.951L9.82488 11.376C9.59769 11.3193 9.35777 11.3853 9.19183 11.5512L7.85918 12.8838C7.71395 13.0291 7.64332 13.233 7.66863 13.4363C7.69395 13.6395 7.81121 13.8207 7.98715 13.926L11.1762 15.8397L13.0899 19.0288C13.1952 19.2047 13.3757 19.322 13.5796 19.3473C13.6063 19.3506 13.6336 19.352 13.661 19.352C13.8362 19.352 14.0061 19.2827 14.1328 19.1574L15.4654 17.8248C15.6306 17.6588 15.6973 17.419 15.6407 17.1917L15.0663 14.8949L20.8067 9.21104C21.7862 8.1855 22.3252 6.83823 22.3239 5.35964ZM13.8582 14.2138C13.6909 14.3791 13.6236 14.6203 13.6803 14.8488L14.2553 17.1484L13.7929 17.6108L12.233 15.0108C12.1764 14.9168 12.0984 14.8382 12.0045 14.7823L9.40449 13.2224L9.86691 12.7599L12.1664 13.335C12.3936 13.3917 12.6335 13.3257 12.7995 13.1598L18.7165 7.24276C19.3295 6.62909 20.1011 6.23128 20.9381 6.08667C20.8061 6.91026 20.431 7.67386 19.8553 8.2769L13.8582 14.2138Z" fill="white"/>
<path d="M20.9627 17.2503L18.9638 10.5004L17.6857 10.8789L19.5641 17.2211L19.1596 17.5782L16.9381 12.4248L15.714 12.9525L18.2994 18.9496C18.384 19.1455 18.5573 19.2894 18.7658 19.3361C18.8145 19.3467 18.863 19.3521 18.9117 19.3521C19.0723 19.3521 19.2295 19.2941 19.3522 19.1855L20.7648 17.9395C20.9594 17.768 21.036 17.4995 20.9627 17.2503Z" fill="white"/>
<path d="M13.016 36.7411C8.27037 38.9899 4.54756 39.2804 2.80444 37.538C-0.216727 34.5169 3.06428 25.7393 10.4359 17.1196L9.4231 16.2534C1.33788 25.7073 -1.77188 34.8473 1.86163 38.4802C2.87647 39.4944 4.30975 40.0001 6.08748 40.0001C8.15974 40.0001 10.6998 39.3132 13.5864 37.9451L13.016 36.7411Z" fill="white"/>
<path d="M35.572 23.0353C35.4561 22.8188 35.2302 22.6835 34.9843 22.6835H32.7308L30.9157 19.054C30.8024 18.8282 30.5719 18.6855 30.3193 18.6855H23.6559C23.2874 18.6855 22.9896 18.984 22.9896 19.3518V24.6825C22.9896 25.051 23.2875 25.3488 23.6559 25.3488H25.6549V32.6785C25.6549 33.047 25.9527 33.3448 26.3213 33.3448H29.6529C29.8294 33.3448 29.9987 33.2748 30.1247 33.1489L32.79 30.4836C32.9152 30.359 32.9852 30.1898 32.9852 30.0125V27.5491L35.5386 23.719C35.6746 23.5151 35.6879 23.2519 35.572 23.0353ZM31.7639 26.9781C31.6912 27.0874 31.6519 27.2166 31.6519 27.3479V29.7374L29.3771 32.0122H26.9877H26.987V24.6825C26.987 24.314 26.6891 24.0162 26.3206 24.0162H24.3217V20.0182H29.9069L31.7219 23.6478C31.8352 23.8736 32.0658 24.0163 32.3183 24.0163H33.7389L31.7639 26.9781Z" fill="white"/>
<path d="M36.0364 17.3525L33.563 13.024C33.4444 12.8161 33.2232 12.6882 32.9846 12.6882H28.9867C28.7641 12.6882 28.5562 12.7994 28.4323 12.9846L27.2975 14.6871H25.655V11.3555H28.9867C29.1639 11.3555 29.3325 11.2855 29.4578 11.1603L31.9278 8.6902H34.9836V7.35754H31.652C31.4747 7.35754 31.3061 7.42754 31.1809 7.55278L28.7108 10.0229H24.9887C24.6202 10.0229 24.3224 10.3214 24.3224 10.6892V15.3535C24.3224 15.7213 24.6203 16.0198 24.9887 16.0198H27.654C27.8766 16.0198 28.0845 15.9085 28.2084 15.7233L29.3432 14.0208H32.5982L35.0717 18.3493C35.1903 18.5572 35.4115 18.6852 35.65 18.6852H38.3153V17.3525H36.0364Z" fill="white"/>
<path d="M19.6579 24.0162H15.9358L14.132 22.2124C14.0074 22.0871 13.8375 22.0172 13.6609 22.0172H10.3293C9.96148 22.0172 9.66296 22.3151 9.66296 22.6835V27.3478C9.66296 27.7163 9.96148 28.0142 10.3293 28.0142H12.9946V34.6775C12.9946 34.9301 13.1372 35.1606 13.3631 35.2738C13.4571 35.3205 13.5597 35.3438 13.661 35.3438C13.8023 35.3438 13.9429 35.2992 14.0608 35.2105L16.7261 33.2116C16.894 33.0856 16.9926 32.8877 16.9926 32.6785V30.9994L20.0744 28.5346C20.2323 28.4081 20.3243 28.2168 20.3243 28.0142V24.6826C20.3242 24.3141 20.0257 24.0162 19.6579 24.0162ZM18.9916 27.6944L15.9098 30.1592C15.7519 30.2858 15.6599 30.477 15.6599 30.6795V32.3454L14.3273 33.3449V27.3479C14.3273 26.9794 14.0287 26.6816 13.6609 26.6816H10.9956V23.3499H13.3851L15.1888 25.1537C15.3134 25.2789 15.4834 25.3489 15.6599 25.3489H18.9916V27.6944Z" fill="white"/>
<path d="M6.23599 14.3441L4.23701 11.0125C4.11709 10.8119 3.89982 10.6893 3.666 10.6893H2.99967V12.0219H3.28889L4.82615 14.5839L3.19498 16.2151C3.06967 16.3397 2.99975 16.5096 2.99975 16.6862V18.6852H1.00061V20.0178H3.66592C4.03373 20.0178 4.33224 19.7193 4.33224 19.3515V16.9621L6.13599 15.1583C6.35193 14.9418 6.39326 14.6066 6.23599 14.3441Z" fill="white"/>
<path d="M20.9913 0.694305V1.50719L18.8304 2.04758C18.7564 2.06626 18.6857 2.09758 18.6225 2.13954L16.9453 3.25766L13.2931 1.43126L12.6968 2.62329L16.6947 4.62227C16.7887 4.66891 16.8907 4.69227 16.9926 4.69227C17.1219 4.69227 17.2505 4.6543 17.3618 4.58031L19.2648 3.31164L21.8189 2.67329C22.1153 2.5993 22.3239 2.33282 22.3239 2.02696V0.694305H20.9913Z" fill="white"/>
</g>
<defs>
<clipPath id="clip0">
<rect width="40" height="40" fill="white"/>
</clipPath>
</defs>
</svg>
