<svg width="40" height="40" viewBox="0 0 40 40" fill="none" xmlns="http://www.w3.org/2000/svg">
<g clip-path="url(#clip0)">
<path d="M0.78125 36.4138H7.5C7.93141 36.4138 8.28125 36.0641 8.28125 35.6326V34.8691C10.8068 34.9845 12.4797 35.6535 14.2411 36.358C16.2302 37.1537 18.287 37.9763 21.5625 37.9763C23.0013 37.9763 25.1368 37.4925 27.9098 36.5383C28.3178 36.3979 28.5347 35.9534 28.3943 35.5454C28.2538 35.1374 27.8091 34.9204 27.4013 35.0609C24.7923 35.9586 22.8279 36.4138 21.5625 36.4138C18.588 36.4138 16.7584 35.682 14.8214 34.9072C12.9954 34.1768 11.1116 33.4241 8.28125 33.3055V25.3679C8.78203 25.2382 9.28656 25.0087 9.81016 24.7697C11.3502 24.0669 13.0956 23.2701 15.488 24.6158L19.2595 26.7375C19.6094 26.9346 20.007 27.0389 20.4094 27.0389H25.4688C26.3303 27.0389 27.0312 27.7398 27.0312 28.6013C27.0312 29.2412 26.6309 29.8263 26.0323 30.0582C25.8534 30.1283 25.6638 30.1638 25.4688 30.1638H17.5266C17.0952 30.1638 16.7453 30.5136 16.7453 30.9451C16.7453 31.3766 17.0952 31.7263 17.5266 31.7263H25.4688C25.8487 31.7263 26.2195 31.658 26.5692 31.5253C26.5755 31.5231 26.5818 31.5217 26.588 31.5193C26.588 31.5193 36.3055 27.9272 36.3095 27.9256C36.4898 27.8556 36.68 27.82 36.875 27.82C37.7366 27.82 38.4375 28.521 38.4375 29.3825C38.4375 29.9836 38.0863 30.5385 37.5446 30.7952C37.4109 30.8596 37.277 30.9246 37.0185 31.0477L36.7925 30.5956C36.5995 30.2097 36.1299 30.0533 35.7444 30.2463C35.3584 30.4392 35.202 30.9085 35.3949 31.2945L35.6024 31.7095C35.091 31.9442 34.5097 32.2067 33.8741 32.4863C33.4791 32.6602 33.2998 33.1212 33.4737 33.5161C33.6478 33.9117 34.1091 34.0899 34.5035 33.9165C36.0404 33.2401 37.0574 32.7603 38.2119 32.2081C39.2981 31.6934 40 30.5843 40 29.3826C40 27.6595 38.5981 26.2576 36.875 26.2576C36.488 26.2576 36.1095 26.3279 35.7501 26.4667L28.5475 29.1292C28.5776 28.9564 28.5938 28.78 28.5938 28.6013C28.5938 26.8782 27.1919 25.4764 25.4688 25.4764H20.4094C20.2752 25.4764 20.1427 25.4417 20.026 25.376L16.2541 23.254C13.1695 21.519 10.8529 22.5764 9.16148 23.3482C8.49648 23.6517 7.92227 23.9139 7.5 23.9139H0.78125C0.349844 23.9139 0 24.2636 0 24.6951V35.6326C0 36.0641 0.349844 36.4138 0.78125 36.4138ZM1.5625 25.4764H6.71875V34.8513H1.5625V25.4764Z" fill="white"/>
<path d="M25.83 22.2228C25.9603 22.3085 26.1098 22.3514 26.2594 22.3514C26.4089 22.3514 26.5585 22.3085 26.6888 22.2228C38.1487 14.6829 38.5263 9.10388 37.7313 6.44942C36.8613 3.54411 34.052 2.02403 31.7266 2.02403C28.9798 2.02403 27.1644 3.5938 26.2595 4.64013C25.3546 3.5938 23.5394 2.02403 20.7931 2.02403C18.4703 2.02403 15.6628 3.54669 14.7912 6.457C13.9967 9.10966 14.3744 14.6853 25.83 22.2228ZM16.2879 6.90528C16.9335 4.74974 19.0909 3.58661 20.793 3.58661C23.9089 3.58661 25.5153 6.2227 25.5861 6.34153C25.7265 6.58005 25.9826 6.72645 26.2594 6.72645C26.537 6.72645 26.7936 6.57919 26.9338 6.33966C26.9499 6.31208 28.5806 3.58661 31.7266 3.58661C33.4312 3.58661 35.5904 4.74708 36.2345 6.8977C36.767 8.67599 36.8385 13.5429 26.2594 20.6325C15.6846 13.5454 15.7558 8.68216 16.2879 6.90528Z" fill="white"/>
<path d="M23.125 12.9764H25.4688V15.3202C25.4688 15.7517 25.8186 16.1014 26.25 16.1014C26.6814 16.1014 27.0312 15.7517 27.0312 15.3202V12.9764H29.375C29.8064 12.9764 30.1562 12.6267 30.1562 12.1952C30.1562 11.7637 29.8064 11.4139 29.375 11.4139H27.0312V9.07019C27.0312 8.63871 26.6814 8.28894 26.25 8.28894C25.8186 8.28894 25.4688 8.63871 25.4688 9.07019V11.4139H23.125C22.6936 11.4139 22.3438 11.7637 22.3438 12.1952C22.3438 12.6267 22.6936 12.9764 23.125 12.9764Z" fill="white"/>
<path d="M30.9375 35.3202C31.369 35.3202 31.7188 34.9704 31.7188 34.5389C31.7188 34.1075 31.369 33.7577 30.9375 33.7577C30.506 33.7577 30.1562 34.1075 30.1562 34.5389C30.1562 34.9704 30.506 35.3202 30.9375 35.3202Z" fill="white"/>
</g>
<defs>
<clipPath id="clip0">
<rect width="40" height="40" fill="white"/>
</clipPath>
</defs>
</svg>
