<svg width="40" height="40" viewBox="0 0 40 40" fill="none" xmlns="http://www.w3.org/2000/svg">
<path d="M38.5669 6.43313L33.5669 1.43312C33.4497 1.31591 33.2907 1.25004 33.125 1.25H14.375C13.8777 1.25 13.4008 1.44754 13.0492 1.79917C12.6975 2.15081 12.5 2.62772 12.5 3.125V18.75H9.375C9.20924 18.75 9.05027 18.8158 8.93306 18.9331C8.81585 19.0503 8.75 19.2092 8.75 19.375V21.875C8.75 22.0408 8.81585 22.1997 8.93306 22.3169C9.05027 22.4342 9.20924 22.5 9.375 22.5H10V23.75H3.125C2.95924 23.75 2.80027 23.8158 2.68306 23.9331C2.56585 24.0503 2.5 24.2092 2.5 24.375V26.875C2.5 27.0408 2.56585 27.1997 2.68306 27.3169C2.80027 27.4342 2.95924 27.5 3.125 27.5H3.75V37.5H1.25V38.75H32.5V37.5H30V36.25H36.875C37.3723 36.25 37.8492 36.0525 38.2008 35.7008C38.5525 35.3492 38.75 34.8723 38.75 34.375V6.875C38.75 6.70925 38.6841 6.55031 38.5669 6.43313ZM33.75 3.38375L36.6162 6.25H34.375C34.2092 6.25 34.0503 6.18415 33.9331 6.06694C33.8158 5.94973 33.75 5.79076 33.75 5.625V3.38375ZM10 20H23.75V21.25H10V20ZM23.75 26.25V25H30V26.25H23.75ZM22.5 22.5V37.5H19.375V35H20V33.75H13.75V35H14.375V37.5H11.25V22.5H22.5ZM18.125 35V37.5H15.625V35H18.125ZM3.75 25H10V26.25H3.75V25ZM5 27.5H10V37.5H5V27.5ZM23.75 37.5V27.5H28.75V37.5H23.75ZM36.875 35H30V27.5H30.625C30.7908 27.5 30.9497 27.4342 31.0669 27.3169C31.1842 27.1997 31.25 27.0408 31.25 26.875V24.375C31.25 24.2092 31.1842 24.0503 31.0669 23.9331C30.9497 23.8158 30.7908 23.75 30.625 23.75H23.75V22.5H24.375C24.5408 22.5 24.6997 22.4342 24.8169 22.3169C24.9342 22.1997 25 22.0408 25 21.875V19.375C25 19.2092 24.9342 19.0503 24.8169 18.9331C24.6997 18.8158 24.5408 18.75 24.375 18.75H13.75V3.125C13.75 2.95924 13.8158 2.80027 13.9331 2.68306C14.0503 2.56585 14.2092 2.5 14.375 2.5H32.5V5.625C32.5 6.12228 32.6975 6.59919 33.0492 6.95083C33.4008 7.30246 33.8777 7.5 34.375 7.5H37.5V34.375C37.5 34.5408 37.4342 34.6997 37.3169 34.8169C37.1997 34.9342 37.0408 35 36.875 35Z" fill="white"/>
<path d="M12.5 23.75H13.75V25H12.5V23.75Z" fill="white"/>
<path d="M15 23.75H16.25V25H15V23.75Z" fill="white"/>
<path d="M17.5 23.75H18.75V25H17.5V23.75Z" fill="white"/>
<path d="M20 23.75H21.25V25H20V23.75Z" fill="white"/>
<path d="M12.5 26.25H13.75V27.5H12.5V26.25Z" fill="white"/>
<path d="M15 26.25H16.25V27.5H15V26.25Z" fill="white"/>
<path d="M17.5 26.25H18.75V27.5H17.5V26.25Z" fill="white"/>
<path d="M20 26.25H21.25V27.5H20V26.25Z" fill="white"/>
<path d="M12.5 28.75H13.75V30H12.5V28.75Z" fill="white"/>
<path d="M15 28.75H16.25V30H15V28.75Z" fill="white"/>
<path d="M17.5 28.75H18.75V30H17.5V28.75Z" fill="white"/>
<path d="M20 28.75H21.25V30H20V28.75Z" fill="white"/>
<path d="M12.5 31.25H13.75V32.5H12.5V31.25Z" fill="white"/>
<path d="M15 31.25H16.25V32.5H15V31.25Z" fill="white"/>
<path d="M17.5 31.25H18.75V32.5H17.5V31.25Z" fill="white"/>
<path d="M20 31.25H21.25V32.5H20V31.25Z" fill="white"/>
<path d="M25 28.75H27.5V30H25V28.75Z" fill="white"/>
<path d="M25 31.25H27.5V32.5H25V31.25Z" fill="white"/>
<path d="M25 33.75H27.5V35H25V33.75Z" fill="white"/>
<path d="M6.25 28.75H8.75V30H6.25V28.75Z" fill="white"/>
<path d="M6.25 31.25H8.75V32.5H6.25V31.25Z" fill="white"/>
<path d="M6.25 33.75H8.75V35H6.25V33.75Z" fill="white"/>
<path d="M18.125 6.875H19.375C19.5408 6.875 19.6997 6.94085 19.8169 7.05806C19.9342 7.17527 20 7.33424 20 7.5H21.25C21.25 7.00272 21.0525 6.52581 20.7008 6.17417C20.3492 5.82254 19.8723 5.625 19.375 5.625V5H18.125V5.625C17.6277 5.625 17.1508 5.82254 16.7992 6.17417C16.4475 6.52581 16.25 7.00272 16.25 7.5C16.25 7.99728 16.4475 8.47419 16.7992 8.82583C17.1508 9.17746 17.6277 9.375 18.125 9.375H19.375C19.5408 9.375 19.6997 9.44085 19.8169 9.55806C19.9342 9.67527 20 9.83424 20 10C20 10.1658 19.9342 10.3247 19.8169 10.4419C19.6997 10.5592 19.5408 10.625 19.375 10.625H18.125C17.9592 10.625 17.8003 10.5592 17.6831 10.4419C17.5658 10.3247 17.5 10.1658 17.5 10H16.25C16.25 10.4973 16.4475 10.9742 16.7992 11.3258C17.1508 11.6775 17.6277 11.875 18.125 11.875V12.5H19.375V11.875C19.8723 11.875 20.3492 11.6775 20.7008 11.3258C21.0525 10.9742 21.25 10.4973 21.25 10C21.25 9.50272 21.0525 9.02581 20.7008 8.67417C20.3492 8.32254 19.8723 8.125 19.375 8.125H18.125C17.9592 8.125 17.8003 8.05915 17.6831 7.94194C17.5658 7.82473 17.5 7.66576 17.5 7.5C17.5 7.33424 17.5658 7.17527 17.6831 7.05806C17.8003 6.94085 17.9592 6.875 18.125 6.875Z" fill="white"/>
<path d="M23.75 10.625H30V11.875H23.75V10.625Z" fill="white"/>
<path d="M23.75 8.125H25V9.375H23.75V8.125Z" fill="white"/>
<path d="M26.25 8.125H27.5V9.375H26.25V8.125Z" fill="white"/>
<path d="M28.75 8.125H30V9.375H28.75V8.125Z" fill="white"/>
<path d="M27.5 14.375H35V15.625H27.5V14.375Z" fill="white"/>
<path d="M27.5 16.875H35V18.125H27.5V16.875Z" fill="white"/>
<path d="M27.5 19.375H35V20.625H27.5V19.375Z" fill="white"/>
</svg>
