<svg width="40" height="40" viewBox="0 0 40 40" fill="none" xmlns="http://www.w3.org/2000/svg">
<path d="M22.8125 16.4062H17.1875C16.756 16.4062 16.4062 16.7561 16.4062 17.1875V22.8125C16.4062 23.2439 16.756 23.5938 17.1875 23.5938H22.8125C23.244 23.5938 23.5938 23.2439 23.5938 22.8125V17.1875C23.5938 16.7561 23.244 16.4062 22.8125 16.4062ZM22.0312 22.0312H17.9688V17.9688H22.0312V22.0312Z" fill="white"/>
<path d="M37.3438 4.21875C35.8791 4.21875 34.6875 5.41031 34.6875 6.875C34.6875 8.33969 35.8791 9.53125 37.3438 9.53125C38.8084 9.53125 40 8.33969 40 6.875C40 5.41031 38.8084 4.21875 37.3438 4.21875ZM37.3438 7.96875C36.7406 7.96875 36.25 7.47813 36.25 6.875C36.25 6.27187 36.7406 5.78125 37.3438 5.78125C37.9469 5.78125 38.4375 6.27187 38.4375 6.875C38.4375 7.47813 37.9469 7.96875 37.3438 7.96875Z" fill="white"/>
<path d="M33.3274 6.32012C33.1821 6.17489 32.9805 6.09122 32.775 6.09122C32.5688 6.09122 32.3672 6.17481 32.2219 6.32012C32.0766 6.46544 31.9938 6.667 31.9938 6.87247C31.9938 7.07794 32.0766 7.2795 32.2219 7.42481C32.368 7.57005 32.5688 7.65372 32.775 7.65372C32.9805 7.65372 33.1821 7.57012 33.3274 7.42481C33.4727 7.2795 33.5563 7.07794 33.5563 6.87247C33.5563 6.667 33.4727 6.46544 33.3274 6.32012Z" fill="white"/>
<path d="M32.4636 20.7812C32.798 21.8659 33.8096 22.6562 35.0024 22.6562C36.4671 22.6562 37.6587 21.4647 37.6587 20C37.6587 18.5353 36.467 17.3438 35.0024 17.3438C33.8095 17.3438 32.7979 18.1341 32.4636 19.2188H27.6562V13.125C27.6562 12.6936 27.3065 12.3438 26.875 12.3438H25.625V7.65391H30.0017C30.4332 7.65391 30.7829 7.30406 30.7829 6.87266C30.7829 6.44125 30.4332 6.09141 30.0017 6.09141H24.8437C24.4122 6.09141 24.0625 6.44125 24.0625 6.87266V12.3438H20.7812V7.53648C21.8658 7.20203 22.6562 6.19055 22.6562 4.99766C22.6562 3.53297 21.4647 2.34141 20 2.34141C18.5353 2.34141 17.3437 3.53297 17.3437 4.99766C17.3437 6.19055 18.1342 7.20211 19.2187 7.53648V12.3438H13.125C12.6935 12.3438 12.3437 12.6936 12.3437 13.125V14.375H7.65381V5.19578C8.73959 4.86211 9.53123 3.85 9.53123 2.65625C9.53123 1.19156 8.33967 0 6.87498 0C5.41029 0 4.21873 1.19156 4.21873 2.65625C4.21873 3.84828 5.00803 4.85922 6.09131 5.19438V15.1562C6.09131 15.5877 6.44107 15.9375 6.87256 15.9375H12.3437V19.2188H7.53639C7.20193 18.1341 6.19037 17.3438 4.99756 17.3438C3.53287 17.3438 2.34131 18.5353 2.34131 20C2.34131 21.4647 3.53287 22.6562 4.99756 22.6562C6.19045 22.6562 7.20201 21.8659 7.53639 20.7812H12.3437V26.875C12.3437 27.3064 12.6935 27.6562 13.125 27.6562H14.375V32.3461H9.99826C9.56678 32.3461 9.21701 32.6959 9.21701 33.1273C9.21701 33.5588 9.56678 33.9086 9.99826 33.9086H15.1562C15.5877 33.9086 15.9375 33.5588 15.9375 33.1273V27.6562H19.2187V32.4635C18.1342 32.798 17.3437 33.8095 17.3437 35.0023C17.3437 36.467 18.5353 37.6586 20 37.6586C21.4647 37.6586 22.6562 36.467 22.6562 35.0023C22.6562 33.8095 21.8658 32.7979 20.7812 32.4635V27.6562H26.875C27.3065 27.6562 27.6562 27.3064 27.6562 26.875V25.625H32.3462V34.8042C31.2604 35.1379 30.4687 36.15 30.4687 37.3438C30.4687 38.8084 31.6603 40 33.125 40C34.5897 40 35.7812 38.8084 35.7812 37.3438C35.7812 36.1517 34.9919 35.1408 33.9087 34.8056V24.8438C33.9087 24.4123 33.5589 24.0625 33.1274 24.0625H27.6562V20.7812H32.4636ZM35.0024 18.9062C35.6055 18.9062 36.0962 19.3969 36.0962 20C36.0962 20.6031 35.6054 21.0938 35.0024 21.0938C34.3993 21.0938 33.9087 20.6031 33.9087 20C33.9087 19.3969 34.3993 18.9062 35.0024 18.9062ZM6.87498 3.75C6.27186 3.75 5.78123 3.25938 5.78123 2.65625C5.78123 2.05312 6.27186 1.5625 6.87498 1.5625C7.47811 1.5625 7.96873 2.05312 7.96873 2.65625C7.96873 3.25938 7.47811 3.75 6.87498 3.75ZM4.99756 21.0938C4.39443 21.0938 3.90381 20.6031 3.90381 20C3.90381 19.3969 4.39443 18.9062 4.99756 18.9062C5.60068 18.9062 6.09131 19.3969 6.09131 20C6.09131 20.6031 5.60068 21.0938 4.99756 21.0938ZM18.9062 4.99766C18.9062 4.39453 19.3969 3.90391 20 3.90391C20.6031 3.90391 21.0937 4.39453 21.0937 4.99766C21.0937 5.60078 20.6031 6.09141 20 6.09141C19.3969 6.09141 18.9062 5.60078 18.9062 4.99766ZM21.0937 35.0023C21.0937 35.6055 20.6031 36.0961 20 36.0961C19.3969 36.0961 18.9062 35.6055 18.9062 35.0023C18.9062 34.3992 19.3969 33.9086 20 33.9086C20.6031 33.9086 21.0937 34.3992 21.0937 35.0023ZM26.0937 26.0938H13.9062V13.9062H26.0937V26.0938ZM33.125 36.25C33.7281 36.25 34.2187 36.7406 34.2187 37.3438C34.2187 37.9469 33.7281 38.4375 33.125 38.4375C32.5219 38.4375 32.0312 37.9469 32.0312 37.3438C32.0312 36.7406 32.5219 36.25 33.125 36.25Z" fill="white"/>
<path d="M2.65625 30.4688C1.19156 30.4688 0 31.6603 0 33.125C0 34.5897 1.19156 35.7812 2.65625 35.7812C4.12094 35.7812 5.3125 34.5897 5.3125 33.125C5.3125 31.6603 4.12094 30.4688 2.65625 30.4688ZM2.65625 34.2188C2.05312 34.2188 1.5625 33.7281 1.5625 33.125C1.5625 32.5219 2.05312 32.0312 2.65625 32.0312C3.25938 32.0312 3.75 32.5219 3.75 33.125C3.75 33.7281 3.25938 34.2188 2.65625 34.2188Z" fill="white"/>
<path d="M7.77891 32.5752C7.63359 32.4299 7.43203 32.3463 7.22656 32.3463C7.02109 32.3463 6.81953 32.4298 6.67422 32.5752C6.52891 32.7204 6.44531 32.922 6.44531 33.1275C6.44531 33.333 6.52891 33.5346 6.67422 33.6798C6.81953 33.8251 7.02109 33.9088 7.22656 33.9088C7.43203 33.9088 7.63359 33.8252 7.77891 33.6798C7.92422 33.5346 8.00781 33.333 8.00781 33.1275C8.00781 32.922 7.92422 32.7204 7.77891 32.5752Z" fill="white"/>
</svg>
