<svg width="35" height="35" viewBox="0 0 35 35" fill="none" xmlns="http://www.w3.org/2000/svg">
<g clip-path="url(#clip0)">
<path d="M34.2994 0.683594C34.2994 0.683594 34.1675 4.36337 32.6383 8.68983L26.2932 2.34472C30.6197 0.815527 34.2994 0.683594 34.2994 0.683594Z" fill="#FF5249"/>
<path d="M26.293 2.34473L32.6381 8.68983C31.6442 11.5049 30.0576 14.5933 27.5324 17.1185C25.2054 19.4455 22.4059 21.3083 19.479 22.5996L12.3833 15.5039C13.2474 13.5454 14.4532 11.4556 16.0467 9.47665C16.6045 8.78417 17.2095 8.10536 17.8643 7.45048C20.3895 4.92529 23.478 3.33867 26.293 2.34473Z" fill="white"/>
<path d="M26.5651 8.41753C27.6329 9.4853 27.6329 11.2168 26.5651 12.2846C25.4974 13.3524 23.7665 13.3524 22.698 12.2846C21.6303 11.2162 21.6303 9.4853 22.698 8.41753C23.7658 7.34976 25.4974 7.34976 26.5651 8.41753Z" fill="#7BD8E8"/>
<path d="M25.5987 19.0521C29.1219 24.3369 22.5266 27.7528 18.8318 27.7528C20.765 25.8196 20.2003 23.3211 20.2003 23.3211L19.4791 22.5999C21.4376 21.7358 23.5274 20.53 25.5064 18.9365L25.5987 19.0521Z" fill="#FF5249"/>
<path d="M11.5891 20.511L11.4784 20.4003C11.1516 20.0728 10.991 19.5984 11.1058 19.15C11.3909 18.0398 11.812 16.8012 12.3834 15.5044L19.4791 22.6001C18.1824 23.1716 16.9437 23.5927 15.8335 23.8777C15.3851 23.9926 14.9107 23.8319 14.5832 23.5052L14.4725 23.3944L11.5891 20.511Z" fill="#FF5249"/>
<path d="M15.9312 9.38473L16.0468 9.47701C14.4533 11.456 13.2474 13.5458 12.3834 15.5042L11.6622 14.7831C11.6622 14.7831 9.16367 14.2184 7.23047 16.1516C7.23047 12.4568 10.6464 5.8615 15.9312 9.38473Z" fill="#FF5249"/>
<path d="M11.5891 20.5107L14.4724 23.3941C14.2653 24.2138 13.7738 25.0765 13.0307 25.8195C11.4291 27.4212 7.23047 27.7527 7.23047 27.7527C7.23047 27.7527 7.56201 23.5541 9.16367 21.9524C9.90673 21.2094 10.7694 20.7179 11.5891 20.5107Z" fill="#FFDD78"/>
<path d="M18.3655 17.6021C18.6321 17.3348 18.6321 16.9021 18.3655 16.6355C18.0982 16.3682 17.6655 16.3682 17.3982 16.6355C17.1316 16.9021 17.1316 17.3348 17.3982 17.6021C17.6655 17.8687 18.0982 17.8687 18.3655 17.6021Z" fill="#131313"/>
<path d="M27.0657 12.7682C28.4013 11.4326 28.4016 9.2702 27.0657 7.9344C25.73 6.59873 23.5677 6.59866 22.2319 7.9344C20.8996 9.26665 20.8995 11.435 22.2321 12.7684C23.5648 14.1003 25.7331 14.1008 27.0657 12.7682ZM23.1987 8.90113C24 8.09976 25.2975 8.09962 26.099 8.90113C26.9004 9.70244 26.9005 11 26.099 11.8014C25.2997 12.6008 23.9985 12.6008 23.1988 11.8015C22.3993 11.0016 22.3993 9.70046 23.1987 8.90113Z" fill="#131313"/>
<path d="M6.98591 16.7828C7.07047 16.8179 7.15933 16.8349 7.24738 16.8349C7.42532 16.8349 7.60012 16.7654 7.73089 16.6347C9.10375 15.2618 10.7971 15.3477 11.3502 15.4204L11.5896 15.6598C11.1185 16.7809 10.739 17.8957 10.4606 18.9799C10.3601 19.3723 10.394 19.7875 10.5434 20.1673C9.88523 20.4707 9.25024 20.916 8.69735 21.4689C6.93771 23.2286 6.5804 27.5171 6.56605 27.6988C6.55032 27.8982 6.62265 28.0945 6.76408 28.2359C6.8928 28.3646 7.06691 28.4362 7.24738 28.4362C7.26529 28.4362 7.28327 28.4355 7.30125 28.434C7.48295 28.4197 11.7715 28.0624 13.5312 26.3028C14.0839 25.7501 14.5291 25.1152 14.8325 24.4572C15.2345 24.6153 15.6484 24.6348 16.0205 24.5394C17.1043 24.2611 18.219 23.8817 19.3402 23.4105L19.5796 23.6499C19.6523 24.2031 19.7381 25.8965 18.3653 27.2692C18.1699 27.4647 18.1114 27.7587 18.2172 28.0141C18.3229 28.2696 18.5722 28.4361 18.8487 28.4361C21.5544 28.4361 25.337 26.8248 26.7302 24.2216C27.3352 23.0911 27.7472 21.3027 26.4334 19.0709C26.9904 18.6001 27.5268 18.108 28.0328 17.602C30.29 15.3447 32.062 12.4229 33.2997 8.91767C34.846 4.54282 34.9939 0.862632 34.9994 0.70814C35.0062 0.518443 34.9338 0.334488 34.7996 0.200231C34.6654 0.0660417 34.4822 -0.00669251 34.2917 0.000485214C34.1372 0.00602231 30.4571 0.153952 26.0824 1.70017C22.5769 2.93788 19.6551 4.70996 17.3979 6.96718C16.8921 7.47297 16.3999 8.00932 15.929 8.56651C13.6972 7.25279 11.9088 7.66472 10.7782 8.26977C8.17502 9.66293 6.56372 13.4457 6.56372 16.1513C6.56393 16.4278 6.73052 16.6771 6.98591 16.7828ZM12.5644 25.336C11.6245 26.2759 9.41956 26.7717 8.02593 26.9741C8.22841 25.5804 8.72421 23.3755 9.66409 22.4356C10.1905 21.9093 10.8008 21.5102 11.4142 21.2854L13.7146 23.5859C13.4899 24.1993 13.0909 24.8096 12.5644 25.336ZM15.6809 23.215C15.4831 23.2657 15.254 23.1913 15.0836 23.0212C11.7654 19.7031 16.0249 23.9626 11.9793 19.9169C11.8088 19.746 11.7344 19.517 11.7849 19.3195C12.0039 18.4668 12.2902 17.5919 12.6385 16.7086L18.2914 22.3616C17.408 22.7099 16.5333 22.9962 15.6809 23.215ZM25.5249 23.5765C24.6293 25.2499 22.3743 26.4833 20.3192 26.9079C20.9745 25.6749 21.1189 24.1053 20.8795 23.1536C20.8239 22.9325 20.6797 22.8213 20.6716 22.8083C22.3282 22.0059 23.897 21.0434 25.3533 19.9362C26.0647 21.2359 26.1233 22.4584 25.5249 23.5765ZM32.3552 7.42293L27.5771 2.64489C30.1803 1.83634 32.445 1.53358 33.5754 1.42475C33.4665 2.55534 33.1637 4.82002 32.3552 7.42293ZM18.3649 7.93392C20.3901 5.90871 23.0037 4.29693 26.1354 3.13674L31.8633 8.8647C30.7033 11.9963 29.0915 14.6099 27.0662 16.6352C26.4502 17.2511 25.7869 17.8462 25.0947 18.4038C23.4307 19.7437 21.5992 20.8786 19.6452 21.782L13.2181 15.355C14.1215 13.4009 15.2564 11.5694 16.5961 9.9056C17.1542 9.21292 17.7492 8.54956 18.3649 7.93392ZM11.4236 9.47514C12.5419 8.87673 13.7642 8.93538 15.0639 9.64679C13.9566 11.103 12.9941 12.6718 12.1917 14.3285C12.1816 14.3222 12.0585 14.1675 11.8299 14.116C11.7359 14.0947 9.9272 13.7057 8.0921 14.681C8.51674 12.6259 9.75015 10.3708 11.4236 9.47514Z" fill="#131313"/>
<path d="M14.4986 31.1364L16.4318 29.2025C16.6987 28.9355 16.6986 28.5027 16.4317 28.2358C16.1646 27.9688 15.7317 27.969 15.4649 28.2359L13.5317 30.1698C13.2648 30.4368 13.2648 30.8697 13.5318 31.1365C13.7989 31.4034 14.2317 31.4034 14.4986 31.1364Z" fill="#131313"/>
<path d="M4.83017 21.4684L6.76406 19.5352C7.03107 19.2683 7.03114 18.8355 6.76426 18.5684C6.49739 18.3014 6.0646 18.3014 5.79752 18.5683L3.86364 20.5015C3.59663 20.7684 3.59656 21.2012 3.86343 21.4682C4.13024 21.7351 4.56302 21.7354 4.83017 21.4684Z" fill="#131313"/>
<path d="M10.6312 29.2031L6.00056 33.8331C5.73355 34.1 5.73355 34.5329 6.00049 34.7998C6.2673 35.0667 6.70022 35.0669 6.96723 34.7999L11.5979 30.1699C11.8649 29.9029 11.8649 29.4701 11.598 29.2031C11.3311 28.9362 10.8982 28.9362 10.6312 29.2031Z" fill="#131313"/>
<path d="M5.16247 29.2031L0.53181 33.8331C0.264799 34.1 0.264799 34.5329 0.531742 34.7998C0.798548 35.0667 1.23147 35.0669 1.49848 34.7999L6.12913 30.1699C6.39614 29.9029 6.39614 29.4701 6.1292 29.2031C5.86233 28.9362 5.42941 28.9362 5.16247 29.2031Z" fill="#131313"/>
<path d="M1.167 28.9993L5.79698 24.3686C6.06392 24.1016 6.06392 23.6688 5.79691 23.4018C5.53003 23.1349 5.09711 23.1349 4.83017 23.4019L0.200199 28.0325C-0.0667442 28.2995 -0.0667442 28.7323 0.200267 28.9993C0.46721 29.2663 0.90006 29.2663 1.167 28.9993Z" fill="#131313"/>
<path d="M20.2988 15.6683L21.2654 14.7017C21.5324 14.4347 21.5324 14.0019 21.2654 13.7349C20.9984 13.4679 20.5657 13.4679 20.2986 13.7349L19.332 14.7015C19.0651 14.9684 19.0651 15.4013 19.332 15.6683C19.5991 15.9352 20.0318 15.9352 20.2988 15.6683Z" fill="#131313"/>
</g>
<defs>
<clipPath id="clip0">
<rect width="35" height="35" fill="white"/>
</clipPath>
</defs>
</svg>
