<svg width="46" height="46" viewBox="0 0 46 46" fill="none" xmlns="http://www.w3.org/2000/svg">
<circle cx="23.1481" cy="23.2592" r="22.4074" fill="#EB6A48"/>
<g clip-path="url(#clip0)">
<path d="M18.6028 22.2717C17.9807 22.0926 17.3585 22.0017 16.7534 22.0017C15.8189 22.0017 15.0391 22.2153 14.4345 22.4768C15.0174 20.3428 16.4177 16.6606 19.2072 16.246C19.4655 16.2076 19.6772 16.0208 19.7477 15.7693L20.3573 13.5887C20.4087 13.4043 20.3783 13.2069 20.2731 13.0468C20.1679 12.8868 19.9989 12.78 19.8094 12.7541C19.6035 12.726 19.3937 12.7117 19.1857 12.7117C15.8374 12.7117 12.5215 16.2065 11.1222 21.2106C10.3009 24.1463 10.06 28.56 12.0832 31.3382C13.2154 32.8927 14.8671 33.7228 16.9926 33.8057C17.0014 33.806 17.0099 33.8063 17.0186 33.8063C19.6412 33.8063 21.9667 32.04 22.6741 29.5115C23.0967 27.9999 22.9057 26.4147 22.1357 25.0467C21.374 23.694 20.1194 22.7081 18.6028 22.2717Z" fill="white"/>
<path d="M35.0194 25.0469C34.2576 23.694 33.003 22.7081 31.4864 22.2717C30.8643 22.0926 30.2422 22.0017 29.6373 22.0017C28.7027 22.0017 27.9227 22.2153 27.3181 22.4768C27.901 20.3428 29.3013 16.6606 32.091 16.246C32.3494 16.2076 32.5608 16.0208 32.6315 15.7693L33.2412 13.5887C33.2926 13.4043 33.2621 13.2069 33.157 13.0468C33.052 12.8868 32.883 12.78 32.6933 12.7541C32.4877 12.726 32.2778 12.7117 32.0696 12.7117C28.7213 12.7117 25.4053 16.2065 24.0058 21.2106C23.1847 24.1463 22.9439 28.56 24.9674 31.3387C26.0993 32.893 27.7513 33.7233 29.8765 33.806C29.8853 33.8063 29.8937 33.8065 29.9027 33.8065C32.525 33.8065 34.8508 32.0403 35.5583 29.5118C35.9804 28.0002 35.7891 26.4147 35.0194 25.0469Z" fill="white"/>
</g>
<defs>
<clipPath id="clip0">
<rect width="25.2593" height="25.2593" fill="white" transform="translate(10.5183 10.6296)"/>
</clipPath>
</defs>
</svg>
