<svg width="45" height="45" viewBox="0 0 45 45" fill="none" xmlns="http://www.w3.org/2000/svg">
<path d="M44.7425 8.25434L36.7444 0.257432C36.5796 0.0926367 36.3561 0 36.123 0H10.0195C8.56564 0 7.38281 1.18283 7.38281 2.63672V4.31227C3.06519 6.00592 0 10.2142 0 15.1252C0 15.6105 0.393574 16.0041 0.878906 16.0041H11.6096C12.0949 16.0041 12.4885 15.6105 12.4885 15.1252V4.39453C12.4885 3.9092 12.0949 3.51562 11.6096 3.51562C10.7625 3.51562 9.93665 3.60765 9.14062 3.78079V2.63672C9.14062 2.15209 9.5349 1.75781 10.0195 1.75781H35.2441V7.11914C35.2441 8.57303 36.427 9.75586 37.8809 9.75586H43.2422V42.3633C43.2422 42.8479 42.8479 43.2422 42.3633 43.2422H10.0195C9.5349 43.2422 9.14062 42.8479 9.14062 42.3633V34.834C9.14062 34.3486 8.74705 33.955 8.26172 33.955C7.77639 33.955 7.38281 34.3486 7.38281 34.834V42.3633C7.38281 43.8172 8.56564 45 10.0195 45H42.3633C43.8172 45 45 43.8172 45 42.3633V8.87581C45 8.64272 44.9074 8.41913 44.7425 8.25434ZM10.7306 5.31237V14.2463H1.79666C2.21687 9.51355 5.99792 5.73258 10.7306 5.31237ZM37.8809 7.99805C37.3962 7.99805 37.002 7.60377 37.002 7.11914V3.00059L42.0001 7.99805H37.8809Z" fill="white"/>
<path d="M8.88302 31.0192C8.71963 30.8557 8.49287 30.7617 8.26172 30.7617C8.03057 30.7617 7.80381 30.8557 7.64033 31.0192C7.47686 31.1827 7.38281 31.4095 7.38281 31.6406C7.38281 31.8718 7.47677 32.0985 7.64033 32.2619C7.80381 32.4255 8.03057 32.5195 8.26172 32.5195C8.49287 32.5195 8.71963 32.4255 8.88302 32.2619C9.04658 32.0985 9.14062 31.8718 9.14062 31.6406C9.14062 31.4095 9.04658 31.1827 8.88302 31.0192Z" fill="white"/>
<path d="M14.7575 6.66382C14.2722 6.66382 13.8786 7.05739 13.8786 7.54272V17.3944H4.02698C3.54165 17.3944 3.14807 17.788 3.14807 18.2733C3.14807 24.6748 8.35603 29.8829 14.7575 29.8829C21.1591 29.8829 26.3671 24.6748 26.3671 18.2733C26.3671 11.8718 21.1591 6.66382 14.7575 6.66382ZM15.6364 8.46057C17.694 8.6432 19.5714 9.46147 21.0713 10.7167L15.6364 16.1514V8.46057ZM14.7575 28.125C9.62148 28.125 5.39069 24.1744 4.94482 19.1522H14.7575C15.0001 19.1522 15.2197 19.0539 15.3788 18.895C15.3788 18.8949 15.3789 18.8949 15.3791 18.8948L22.3145 11.9595C23.7463 13.6705 24.6093 15.873 24.6093 18.2733C24.6093 23.7055 20.1898 28.125 14.7575 28.125Z" fill="white"/>
<path d="M38.5024 27.7388C37.0485 27.7388 35.8657 28.9216 35.8657 30.3755C35.8657 30.7399 35.9401 31.0871 36.0743 31.4031L31.0106 36.4667C30.6627 36.2972 30.2721 36.2018 29.8597 36.2018C29.4571 36.2018 29.0755 36.2929 28.7338 36.4549L25.3713 33.0924C25.4879 32.7949 25.5525 32.4716 25.5525 32.1332C25.5525 30.6793 24.3697 29.4965 22.9158 29.4965C21.4619 29.4965 20.2791 30.6793 20.2791 32.1332C20.2791 32.5271 20.3666 32.9008 20.5221 33.2369L17.297 36.462C16.9534 36.2976 16.569 36.2054 16.1635 36.2054C14.7096 36.2054 13.5267 37.3883 13.5267 38.8422C13.5267 40.2961 14.7096 41.4789 16.1635 41.4789C17.6173 41.4789 18.8002 40.2961 18.8002 38.8422C18.8002 38.4346 18.7072 38.0484 18.5414 37.7036L21.7486 34.4965C22.1007 34.6712 22.4969 34.7699 22.916 34.7699C23.3893 34.7699 23.8334 34.644 24.2178 34.4248L27.4854 37.6925C27.3174 38.0392 27.223 38.428 27.223 38.8386C27.223 40.2924 28.4058 41.4753 29.8597 41.4753C31.3136 41.4753 32.4964 40.2924 32.4964 38.8386C32.4964 38.438 32.4063 38.0581 32.2457 37.7178L37.262 32.7014C37.632 32.8995 38.0543 33.0122 38.5024 33.0122C39.9563 33.0122 41.1392 31.8294 41.1392 30.3755C41.1392 28.9216 39.9563 27.7388 38.5024 27.7388ZM16.1634 39.7212C15.6787 39.7212 15.2845 39.3269 15.2845 38.8423C15.2845 38.3576 15.6787 37.9633 16.1634 37.9633C16.3994 37.9633 16.6134 38.0573 16.7714 38.2092C16.7749 38.2129 16.778 38.2168 16.7816 38.2204C16.7858 38.2246 16.7904 38.2282 16.7947 38.2322C16.9476 38.3904 17.0423 38.6054 17.0423 38.8423C17.0423 39.3268 16.648 39.7212 16.1634 39.7212ZM22.9158 33.0121C22.4312 33.0121 22.0369 32.6178 22.0369 32.1332C22.0369 31.6486 22.4312 31.2543 22.9158 31.2543C23.4005 31.2543 23.7947 31.6486 23.7947 32.1332C23.7947 32.6178 23.4005 33.0121 22.9158 33.0121ZM29.8595 39.7175C29.3749 39.7175 28.9806 39.3232 28.9806 38.8386C28.9806 38.3539 29.3749 37.9597 29.8595 37.9597C30.3442 37.9597 30.7384 38.3539 30.7384 38.8386C30.7384 39.3232 30.3442 39.7175 29.8595 39.7175ZM38.5023 31.2543C38.0176 31.2543 37.6234 30.86 37.6234 30.3754C37.6234 29.8908 38.0177 29.4965 38.5023 29.4965C38.9869 29.4965 39.3812 29.8908 39.3812 30.3754C39.3812 30.86 38.9869 31.2543 38.5023 31.2543Z" fill="white"/>
<path d="M34.1095 20.6543H29.4707C28.9854 20.6543 28.5918 21.0479 28.5918 21.5332C28.5918 22.0185 28.9853 22.4121 29.4707 22.4121H34.1095C34.5948 22.4121 34.9884 22.0185 34.9884 21.5332C34.9884 21.0479 34.5948 20.6543 34.1095 20.6543Z" fill="white"/>
<path d="M38.7324 20.9118C38.569 20.7483 38.3422 20.6543 38.1111 20.6543C37.8799 20.6543 37.6532 20.7483 37.4897 20.9118C37.3262 21.0753 37.2322 21.3021 37.2322 21.5332C37.2322 21.7644 37.3261 21.9911 37.4897 22.1545C37.6532 22.318 37.8791 22.4121 38.1111 22.4121C38.3422 22.4121 38.569 22.3181 38.7324 22.1545C38.8959 21.9911 38.99 21.7644 38.99 21.5332C38.99 21.3021 38.8959 21.0753 38.7324 20.9118Z" fill="white"/>
<path d="M40.2069 12.2168H29.4707C28.9854 12.2168 28.5918 12.6104 28.5918 13.0957C28.5918 13.581 28.9853 13.9746 29.4707 13.9746H40.2069C40.6922 13.9746 41.0858 13.581 41.0858 13.0957C41.0858 12.6104 40.6922 12.2168 40.2069 12.2168Z" fill="white"/>
<path d="M40.2069 16.4355H29.4707C28.9854 16.4355 28.5918 16.8291 28.5918 17.3145C28.5918 17.7998 28.9853 18.1934 29.4707 18.1934H40.2069C40.6922 18.1934 41.0858 17.7998 41.0858 17.3145C41.0858 16.8291 40.6922 16.4355 40.2069 16.4355Z" fill="white"/>
</svg>
