<svg width="45" height="45" viewBox="0 0 45 45" fill="none" xmlns="http://www.w3.org/2000/svg">
<g clip-path="url(#clip0)">
<path d="M5.90443 6.02295H5.89551C5.41005 6.02295 5.0166 6.41717 5.0166 6.90358C5.0166 7.38998 5.41005 7.7842 5.89551 7.7842H5.90443C6.38989 7.7842 6.78334 7.38998 6.78334 6.90358C6.78334 6.41717 6.38989 6.02295 5.90443 6.02295Z" fill="white"/>
<path d="M10.2578 6.02295H10.2489C9.76344 6.02295 9.37 6.41717 9.37 6.90358C9.37 7.38998 9.76344 7.7842 10.2489 7.7842H10.2578C10.7433 7.7842 11.1367 7.38998 11.1367 6.90358C11.1367 6.41717 10.7433 6.02295 10.2578 6.02295Z" fill="white"/>
<path d="M14.6111 6.02295H14.6022C14.1167 6.02295 13.7233 6.41717 13.7233 6.90358C13.7233 7.38998 14.1167 7.7842 14.6022 7.7842H14.6111C15.0966 7.7842 15.49 7.38998 15.49 6.90358C15.49 6.41717 15.0966 6.02295 14.6111 6.02295Z" fill="white"/>
<path d="M39.0506 6.02295H22.0939C21.6084 6.02295 21.215 6.41717 21.215 6.90358C21.215 7.38964 21.6084 7.7842 22.0939 7.7842H39.0506C39.536 7.7842 39.9295 7.38964 39.9295 6.90358C39.9295 6.41717 39.536 6.02295 39.0506 6.02295Z" fill="white"/>
<path d="M23.1056 41.6041C22.8745 41.6041 22.6486 41.6984 22.4842 41.8621C22.3208 42.0259 22.2267 42.2532 22.2267 42.4848C22.2267 42.7163 22.3208 42.9436 22.4842 43.1074C22.6486 43.2711 22.8745 43.3654 23.1056 43.3654C23.3366 43.3654 23.5636 43.2711 23.727 43.1074C23.8911 42.9436 23.9845 42.7163 23.9845 42.4848C23.9845 42.2532 23.8911 42.0259 23.727 41.8621C23.5636 41.6984 23.3366 41.6041 23.1056 41.6041Z" fill="white"/>
<path d="M42.2078 1.8053H2.79224C1.25278 1.8053 0 3.06053 0 4.60301V40.5676C0 42.1105 1.25278 43.3654 2.79224 43.3654H19.4238C19.9093 43.3654 20.3027 42.9711 20.3027 42.4847C20.3027 41.9983 19.9093 41.6041 19.4238 41.6041H2.79224C2.22198 41.6041 1.75781 41.1394 1.75781 40.5676V12.002H43.2422V40.5676C43.2422 41.139 42.778 41.6041 42.2078 41.6041H26.6896C26.2041 41.6041 25.8107 41.9983 25.8107 42.4847C25.8107 42.9711 26.2041 43.3654 26.6896 43.3654H42.2078C43.7472 43.3654 45 42.1105 45 40.5676V4.60301C45 3.06053 43.7472 1.8053 42.2078 1.8053ZM1.75781 10.2404V4.60301C1.75781 4.03163 2.22198 3.56655 2.79224 3.56655H42.2078C42.778 3.56655 43.2422 4.03163 43.2422 4.60301V10.2407H1.75781V10.2404Z" fill="white"/>
<path d="M15.6479 22.0597C15.6479 20.3115 14.2286 18.8894 12.4839 18.8894H9.52478C9.03932 18.8894 8.64587 19.2836 8.64587 19.77V28.9285C8.64587 29.4149 9.03932 29.8092 9.52478 29.8092H12.4839C14.2286 29.8092 15.6479 28.3871 15.6479 26.6389C15.6479 25.7394 15.2717 24.9269 14.6688 24.3493C15.2717 23.7717 15.6479 22.9592 15.6479 22.0597ZM13.8901 26.6389C13.8901 27.4157 13.2591 28.0479 12.4839 28.0479H10.4037V25.2299H12.4839C13.2591 25.2299 13.8901 25.8618 13.8901 26.6389ZM10.4037 23.4687V20.6507H12.4839C13.2594 20.6507 13.8901 21.2829 13.8901 22.0597C13.8901 22.8364 13.2594 23.4687 12.4839 23.4687H10.4037Z" fill="white"/>
<path d="M18.1625 18.8894C17.677 18.8894 17.2836 19.2836 17.2836 19.77V26.8917C17.2836 28.5006 18.5899 29.8092 20.1953 29.8092C20.6807 29.8092 21.0742 29.4149 21.0742 28.9285C21.0742 28.4421 20.6807 28.0479 20.1953 28.0479C19.5591 28.0479 19.0414 27.5292 19.0414 26.8917V19.77C19.0414 19.2836 18.6479 18.8894 18.1625 18.8894Z" fill="white"/>
<path d="M28.5528 26.6203C28.5528 24.8618 27.1253 23.4312 25.3702 23.4312C23.6152 23.4312 22.1876 24.8618 22.1876 26.6203C22.1876 28.3788 23.6155 29.8092 25.3702 29.8092C27.1253 29.8092 28.5528 28.3788 28.5528 26.6203ZM23.9454 26.6203C23.9454 25.8329 24.5847 25.1924 25.3702 25.1924C26.1557 25.1924 26.795 25.8329 26.795 26.6203C26.795 27.4074 26.1561 28.0479 25.3702 28.0479C24.5844 28.0479 23.9454 27.4074 23.9454 26.6203Z" fill="white"/>
<path d="M33.1711 32.2749C32.3856 32.2749 31.7463 31.6344 31.7463 30.8473C31.7463 30.3609 31.3529 29.9667 30.8674 29.9667C30.382 29.9667 29.9885 30.3609 29.9885 30.8473C29.9885 32.6058 31.4164 34.0362 33.1711 34.0362C34.9262 34.0362 36.3541 32.6058 36.3541 30.8473V26.6203C36.3541 24.8618 34.9262 23.4312 33.1711 23.4312C31.4164 23.4312 29.9885 24.8618 29.9885 26.6203C29.9885 28.3788 31.4164 29.8092 33.1711 29.8092C33.6834 29.8092 34.1671 29.6867 34.5963 29.4703V30.8473C34.5963 31.6344 33.957 32.2749 33.1711 32.2749ZM33.1711 28.0479C32.3856 28.0479 31.7463 27.4074 31.7463 26.6203C31.7463 25.8329 32.3856 25.1924 33.1711 25.1924C33.957 25.1924 34.5963 25.8329 34.5963 26.6203C34.5963 27.4074 33.957 28.0479 33.1711 28.0479Z" fill="white"/>
<path d="M9.52478 38.4394H35.4752C35.9606 38.4394 36.3541 38.0451 36.3541 37.5587C36.3541 37.0723 35.9606 36.6781 35.4752 36.6781H9.52478C9.03967 36.6781 8.64587 37.0723 8.64587 37.5587C8.64587 38.0451 9.03967 38.4394 9.52478 38.4394Z" fill="white"/>
</g>
<defs>
<clipPath id="clip0">
<rect width="45" height="45" fill="white"/>
</clipPath>
</defs>
</svg>
