<svg width="45" height="45" viewBox="0 0 45 45" fill="none" xmlns="http://www.w3.org/2000/svg">
<g clip-path="url(#clip0)">
<path d="M12.038 28.3214C12.4582 28.079 12.602 27.541 12.3597 27.1207C12.1169 26.7009 11.5793 26.5567 11.1591 26.799C10.7388 27.0418 10.5946 27.5798 10.8374 27.9997C11.0797 28.4199 11.6177 28.5641 12.038 28.3214Z" fill="white"/>
<path d="M8.43599 34.3876L12.8621 42.0543C13.8172 43.7105 15.9657 44.3237 17.6649 43.3414C19.3461 42.3698 19.9239 40.2216 18.9513 38.539L16.3146 33.9715L18.598 32.6531C19.0182 32.41 19.1624 31.8727 18.9197 31.4525L17.7768 29.4729C17.9131 29.4465 18.8091 29.2707 34.6113 26.1708C36.5648 26.0647 37.7352 23.9282 36.7484 22.2202L33.8275 17.161L35.6941 14.3337C35.8774 14.0556 35.8884 13.6982 35.7219 13.4099L33.9641 10.3653C33.7976 10.0769 33.4814 9.90796 33.1501 9.92753L29.7687 10.1304L26.526 4.51367C26.0563 3.7 25.2149 3.20733 24.2755 3.19566C24.2642 3.19531 24.2532 3.19531 24.2419 3.19531C23.3341 3.19531 22.5102 3.64713 22.022 4.41102L10.5406 19.0373L3.07638 23.3466C0.140626 25.0409 -0.876296 28.8072 0.824525 31.7508C2.3784 34.4425 5.65439 35.5013 8.43599 34.3876ZM17.4293 39.4183C17.9148 40.258 17.6274 41.3326 16.7853 41.8191C15.9403 42.3077 14.8644 42.0076 14.3844 41.1757L9.98987 33.5632L13.0345 31.8054C18.1204 40.6158 17.3476 39.2772 17.4293 39.4183ZM15.4357 32.4488L14.5568 30.9265L16.079 30.0476L16.958 31.5699L15.4357 32.4488ZM32.7134 11.7145L33.9281 13.8184L32.8449 15.4588L30.7513 11.8323L32.7134 11.7145ZM23.4921 5.37473C23.7279 4.98883 24.1022 4.94901 24.2539 4.95313C24.4039 4.95484 24.7778 5.00153 25.0034 5.39224L35.2262 23.0991C35.5592 23.6755 35.1544 24.4003 34.4866 24.4168C34.3668 24.4195 34.3115 24.4412 34.0046 24.4985L23.191 5.76852C23.4179 5.47669 23.4471 5.44854 23.4921 5.37473ZM22.0213 7.25854L32.1812 24.8562L16.8477 27.8637L12.1854 19.7884L22.0213 7.25854ZM2.34682 30.8719C1.96092 30.2042 1.75699 29.4461 1.75699 28.6791C1.75699 27.1115 2.5995 25.6517 3.95529 24.8689L10.8056 20.9139L15.2001 28.5253L8.34982 32.4807C6.25109 33.692 3.5584 32.9703 2.34682 30.8719Z" fill="white"/>
<path d="M9.31513 28.8785C9.0724 28.4583 8.53476 28.3141 8.11453 28.5568L6.59224 29.4358C6.1727 29.6781 5.63402 29.5336 5.39164 29.1141C5.14891 28.6938 4.61126 28.5496 4.19104 28.7924C3.77081 29.0351 3.62662 29.5727 3.86934 29.993C4.59273 31.2461 6.20634 31.688 7.47114 30.9581L8.99344 30.0791C9.41366 29.8364 9.55786 29.2991 9.31513 28.8785Z" fill="white"/>
<path d="M43.6937 5.0753L38.7962 7.8006C38.3722 8.03681 38.2194 8.57205 38.4556 8.99605C38.6911 9.41971 39.226 9.57318 39.6511 9.33663L44.5482 6.61133C44.9726 6.37512 45.125 5.83988 44.8888 5.41588C44.6529 4.99153 44.1177 4.8391 43.6937 5.0753Z" fill="white"/>
<path d="M43.1801 14.1783L39.7843 13.2685C39.3153 13.1428 38.8333 13.4209 38.7077 13.8899C38.582 14.3589 38.8604 14.8405 39.3294 14.9662L42.7256 15.876C43.1973 16.0027 43.6769 15.7201 43.8019 15.2546C43.9275 14.7856 43.6491 14.3036 43.1801 14.1783Z" fill="white"/>
<path d="M34.6465 1.88219L33.7356 5.27834C33.61 5.74732 33.8881 6.229 34.357 6.355C34.8257 6.48031 35.3077 6.2029 35.4337 5.73358L36.3442 2.33744C36.4698 1.86846 36.1917 1.38643 35.7228 1.26078C35.2541 1.13512 34.7721 1.41321 34.6465 1.88219Z" fill="white"/>
</g>
<defs>
<clipPath id="clip0">
<rect width="45" height="45" fill="white"/>
</clipPath>
</defs>
</svg>
