<svg width="45" height="45" viewBox="0 0 45 45" fill="none" xmlns="http://www.w3.org/2000/svg">
<g clip-path="url(#clip0)">
<path d="M38.6752 0H36.7405C35.89 0 35.89 1.31855 36.7405 1.31855H38.6752C40.6733 1.31855 42.2989 2.93826 42.2989 4.92909V20.1866C42.2989 22.1776 40.6734 23.7973 38.6752 23.7973H36.4809C36.3361 23.7973 36.1954 23.8449 36.0803 23.9329L32.0538 27.0129V24.4566C32.0538 24.0925 31.7587 23.7973 31.3945 23.7973H23.3707C22.7136 23.7973 22.0821 23.6238 21.5252 23.2941V15.8934C21.5252 14.5071 20.8192 13.2824 19.747 12.5578V4.92909C19.747 2.93826 21.3726 1.31855 23.3707 1.31855H32.609C33.4594 1.31855 33.4594 0 32.609 0H23.3707C20.6455 0 18.4284 2.21121 18.4284 4.92909V11.9783C18.1266 11.9062 17.8121 11.867 17.4884 11.867H5.41963C3.19383 11.867 1.38293 13.6732 1.38293 15.8934V17.317C1.38293 18.1673 2.70148 18.1673 2.70148 17.317V15.8934C2.70148 14.4002 3.92079 13.1855 5.41963 13.1855H17.4885C18.9873 13.1855 20.2067 14.4002 20.2067 15.8934V23.5566C20.1988 23.6148 20.1992 23.6734 20.2067 23.7312V27.9252C20.2067 28.0081 20.2017 28.0907 20.1942 28.1728H18.8346C17.3365 28.1728 16.0876 29.2541 15.8286 30.6752C15.7687 30.6978 15.7111 30.7293 15.6577 30.7705L12.709 33.0473V31.2924C12.709 30.9283 12.4139 30.6331 12.0497 30.6331H5.41963C3.92079 30.6331 2.70148 29.4183 2.70148 27.9252V21.2726C2.70148 20.4222 1.38293 20.4222 1.38293 21.2726V27.9253C1.38293 30.1455 3.19383 31.9517 5.41963 31.9517H11.3906V34.3893C11.3906 34.9181 12.0327 35.2353 12.4528 34.9112L15.7786 32.3432V39.7601C15.7786 41.4412 17.1496 42.8088 18.8347 42.8088H22.8805V44.3472C22.8805 44.8759 23.5226 45.1935 23.9426 44.8691L26.611 42.8088H27.3993C29.0844 42.8088 30.4555 41.4412 30.4555 39.7601V38.5896C30.4555 37.7392 29.1369 37.7392 29.1369 38.5896V39.7601C29.1369 40.7142 28.3575 41.4903 27.3993 41.4903H26.3861C26.2402 41.4903 26.0985 41.5386 25.9832 41.6277L24.1989 43.0052V42.1495C24.1989 41.7854 23.9039 41.4902 23.5397 41.4902H18.8346C17.8766 41.4902 17.0971 40.714 17.0971 39.76V31.2216C17.0971 30.2675 17.8765 29.4914 18.8346 29.4914H27.3993C28.3574 29.4914 29.1369 30.2676 29.1369 31.2216V34.4581C29.1369 35.3085 30.4555 35.3085 30.4555 34.4581V31.2217C30.4555 29.5405 29.0844 28.1729 27.3993 28.1729H21.5177C21.5227 28.0906 21.5253 24.7607 21.5253 24.7607C22.1066 24.9944 22.7298 25.1159 23.3708 25.1159H30.7354V28.3472C30.7354 28.8748 31.3748 29.1923 31.7952 28.8709L36.7043 25.1159H38.6753C41.4004 25.1159 43.6175 22.9047 43.6175 20.1867V4.92909C43.6174 2.21121 41.4003 0 38.6752 0V0Z" fill="white"/>
<path d="M32.6702 4.87082C31.8331 4.65712 30.9801 5.31851 30.9801 6.18348C30.9801 7.12853 30.6357 8.03929 30.0108 8.74753L28.1944 10.803C28.0767 10.6225 27.8735 10.503 27.6421 10.503H24.096C23.7319 10.503 23.4368 10.7982 23.4368 11.1623V19.1409C23.4368 19.505 23.7319 19.8001 24.096 19.8001H27.6421C27.9085 19.8001 28.1374 19.6418 28.2414 19.4145C28.9593 19.8532 29.7912 20.0903 30.6376 20.0903H36.9044C37.8621 20.0903 38.652 19.2594 38.6071 18.3042C38.5872 17.8812 38.609 12.2015 38.609 12.0754C38.609 11.1355 37.8443 10.3708 36.9064 10.3708L33.6475 10.361L33.7825 10.0415C34.3991 8.58113 34.2976 6.88776 33.5112 5.51146C33.3277 5.18991 33.0289 4.9625 32.6702 4.87082C33.0289 4.9625 32.3114 4.77922 32.6702 4.87082C33.0289 4.9625 31.8332 4.65712 32.6702 4.87082ZM26.9828 18.4816H24.7553V11.8216H26.9828V18.4816ZM36.9044 11.6892C37.1173 11.6892 37.2905 11.8624 37.2905 12.0753C37.2905 12.2007 37.2892 12.5412 37.2874 13.0028C37.2777 15.5512 37.2712 17.9649 37.29 18.3661C37.2968 18.5109 37.2264 18.6074 37.1839 18.652C37.1102 18.7292 37.011 18.7717 36.9044 18.7717H30.6376C29.8906 18.7717 29.1595 18.5128 28.5789 18.0428L28.3013 17.8181V12.673L30.9992 9.62023C31.8372 8.67053 32.2987 7.44999 32.2987 6.18339C32.2987 6.14612 32.3496 6.13645 32.3664 6.16546C32.9503 7.18716 33.0255 8.44426 32.5678 9.52838L32.0475 10.7607C31.9616 10.964 31.9833 11.1967 32.1048 11.3808C32.2266 11.5648 32.4323 11.6758 32.6528 11.6765L36.9044 11.6892Z" fill="white"/>
<path d="M7.02805 22.8986C6.66387 22.8986 6.36877 23.1938 6.36877 23.5579C6.36877 23.922 6.66387 24.2171 7.02805 24.2171H8.97142L8.60838 26.4129C8.54895 26.7721 8.79209 27.1115 9.15127 27.1709C9.18775 27.1769 9.22388 27.1798 9.25956 27.1798C9.57637 27.1798 9.85581 26.9509 9.90926 26.628L10.3078 24.2172H11.8982L11.5352 26.413C11.4758 26.7721 11.7189 27.1115 12.0781 27.171C12.1146 27.177 12.1507 27.1799 12.1864 27.1799C12.5032 27.1799 12.7826 26.9509 12.8361 26.6281L13.2346 24.2173H15.8799C16.2441 24.2173 16.5392 23.9221 16.5392 23.5581C16.5392 23.194 16.2441 22.8988 15.8799 22.8988H13.4526L13.7185 21.2905H15.8799C16.2441 21.2905 16.5392 20.9953 16.5392 20.6312C16.5392 20.2671 16.2441 19.9719 15.8799 19.9719H13.9365L14.2996 17.7762C14.359 17.417 14.1159 17.0776 13.7567 17.0182C13.3971 16.9586 13.0581 17.2019 12.9987 17.5611L12.6002 19.9719H11.0097L11.3728 17.7761C11.4322 17.417 11.189 17.0776 10.8299 17.0181C10.4698 16.9585 10.1314 17.2019 10.0719 17.561L9.67333 19.9718H7.02805C6.66387 19.9718 6.36877 20.267 6.36877 20.631C6.36877 20.9951 6.66387 21.2903 7.02805 21.2903H9.45533L9.18942 22.8986H7.02805ZM10.7918 21.2903H12.3822L12.1163 22.8986H10.5259L10.7918 21.2903Z" fill="white"/>
<path d="M23.109 32.8931C22.5766 32.4548 21.8684 32.2819 21.158 32.4546C20.2475 32.6757 19.3289 33.5268 19.3289 34.9296C19.3289 35.8028 19.6475 36.5607 20.303 37.2467C20.8384 37.807 21.6111 38.3399 22.8082 38.9746C22.9048 39.0258 23.0109 39.0514 23.117 39.0514C23.2231 39.0514 23.3292 39.0258 23.4258 38.9746C25.5142 37.8674 26.905 36.7559 26.905 34.9296C26.905 33.5191 25.9537 32.6767 25.0109 32.4676C24.3025 32.3104 23.6158 32.4773 23.109 32.8931ZM25.5864 34.9296C25.5864 35.9147 24.933 36.6431 23.1169 37.6428C21.3008 36.643 20.6473 35.9146 20.6473 34.9296C20.6473 34.1967 21.0717 33.8324 21.469 33.7359C21.5422 33.7181 21.6206 33.7081 21.7012 33.7081C22 33.7081 22.3285 33.8461 22.531 34.2388C22.6464 34.4622 22.8797 34.6008 23.13 34.5956C23.3813 34.5906 23.608 34.4431 23.7143 34.2152C23.9276 33.7579 24.3763 33.6775 24.7251 33.755C25.1416 33.8472 25.5864 34.2043 25.5864 34.9296Z" fill="white"/>
</g>
<defs>
<clipPath id="clip0">
<rect width="45" height="45" fill="white"/>
</clipPath>
</defs>
</svg>
