<svg width="45" height="45" viewBox="0 0 45 45" fill="none" xmlns="http://www.w3.org/2000/svg">
<path d="M3.71969 3.71954C3.65613 3.78676 3.60601 3.86552 3.57203 3.95157C3.53492 4.03576 3.51575 4.12675 3.51575 4.21876C3.51575 4.31076 3.53492 4.40176 3.57203 4.48595C3.6043 4.57286 3.65462 4.65194 3.71969 4.71798C3.85297 4.8487 4.03221 4.92192 4.2189 4.92192C4.40559 4.92192 4.58484 4.8487 4.71812 4.71798C4.84884 4.58469 4.92207 4.40545 4.92207 4.21876C4.92207 4.03207 4.84884 3.85283 4.71812 3.71954C4.58215 3.59408 4.40392 3.52441 4.2189 3.52441C4.03389 3.52441 3.85566 3.59408 3.71969 3.71954Z" fill="white"/>
<path d="M6.06098 3.57191C5.97407 3.60418 5.89499 3.65451 5.82894 3.71957C5.69823 3.85286 5.625 4.0321 5.625 4.21879C5.625 4.40548 5.69823 4.58472 5.82894 4.71801C5.92729 4.81717 6.05294 4.8848 6.18987 4.91227C6.3268 4.93974 6.46881 4.92581 6.5978 4.87225C6.72678 4.8187 6.8369 4.72794 6.9141 4.61156C6.9913 4.49518 7.0321 4.35845 7.03129 4.21879C7.02856 4.03265 6.95575 3.85439 6.82738 3.71957C6.72767 3.62335 6.60216 3.55817 6.4661 3.53196C6.33004 3.50574 6.18929 3.51962 6.06098 3.57191Z" fill="white"/>
<path d="M8.17035 3.57188C8.0843 3.60586 8.00554 3.65598 7.93832 3.71954C7.8076 3.85283 7.73438 4.03207 7.73438 4.21876C7.73438 4.40545 7.8076 4.58469 7.93832 4.71798C8.00671 4.78003 8.08517 4.82996 8.17035 4.86563C8.25488 4.90166 8.34566 4.92077 8.43754 4.92188C8.53013 4.92282 8.62199 4.90528 8.70772 4.87028C8.79345 4.83527 8.87134 4.78352 8.93682 4.71804C9.0023 4.65256 9.05405 4.57467 9.08905 4.48894C9.12406 4.40321 9.1416 4.31136 9.14066 4.21876C9.13793 4.03262 9.06512 3.85436 8.93675 3.71954C8.83613 3.62483 8.71066 3.56067 8.57497 3.53453C8.43928 3.50839 8.29896 3.52134 8.17035 3.57188Z" fill="white"/>
<path d="M20.3906 13.3594H10.5469V14.7656H20.3906V13.3594Z" fill="white"/>
<path d="M20.3906 17.5781H10.5469V18.9844H20.3906V17.5781Z" fill="white"/>
<path d="M23.9062 21.7969H10.5469V23.2031H23.9062V21.7969Z" fill="white"/>
<path d="M19.6875 26.0156H10.5469V27.4219H19.6875V26.0156Z" fill="white"/>
<path d="M16.1719 30.2344H10.5469V31.6406H16.1719V30.2344Z" fill="white"/>
<path d="M14.7656 34.4531H10.5469V35.8594H14.7656V34.4531Z" fill="white"/>
<path d="M40.9015 9.84375C40.5478 9.84273 40.1974 9.91193 39.8707 10.0474C39.544 10.1828 39.2474 10.3817 38.9981 10.6327L36.5625 13.0683V3.51562C36.5625 2.95618 36.3403 2.41966 35.9447 2.02407C35.5491 1.62849 35.0126 1.40625 34.4531 1.40625H3.51562C2.95618 1.40625 2.41966 1.62849 2.02407 2.02407C1.62849 2.41966 1.40625 2.95618 1.40625 3.51562V41.4844C1.40625 42.0438 1.62849 42.5803 2.02407 42.9759C2.41966 43.3715 2.95618 43.5938 3.51562 43.5938H34.4531C35.0126 43.5938 35.5491 43.3715 35.9447 42.9759C36.3403 42.5803 36.5625 42.0438 36.5625 41.4844V20.6817L42.8048 14.4394C43.1816 14.063 43.4382 13.5833 43.5422 13.061C43.6462 12.5388 43.593 11.9974 43.3892 11.5054C43.1854 11.0134 42.8403 10.5929 42.3975 10.2971C41.9546 10.0013 41.434 9.84356 40.9015 9.84375ZM2.8125 3.51562C2.8125 3.32914 2.88658 3.1503 3.01844 3.01844C3.1503 2.88658 3.32914 2.8125 3.51562 2.8125H34.4531C34.6396 2.8125 34.8184 2.88658 34.9503 3.01844C35.0822 3.1503 35.1562 3.32914 35.1562 3.51562V5.625H2.8125V3.51562ZM35.1562 41.4844C35.1562 41.6709 35.0822 41.8497 34.9503 41.9816C34.8184 42.1134 34.6396 42.1875 34.4531 42.1875H3.51562C3.32914 42.1875 3.1503 42.1134 3.01844 41.9816C2.88658 41.8497 2.8125 41.6709 2.8125 41.4844V7.03125H35.1562V14.4745L30.9375 18.6933V16.5839L23.4942 9.14062H7.03125V40.0781H30.9375V26.3067L35.1562 22.088V41.4844ZM18.3698 31.2609L16.4665 36.971L22.1766 35.0677L24.1973 33.0469L29.5312 27.713V38.6719H8.4375V10.5469H22.5V17.5781H29.5312V20.0995L20.3906 29.2402L18.3698 31.2609ZM20.3906 31.2286L22.2089 33.0469L21.4172 33.8386L18.6898 34.7477L19.5989 32.0203L20.3906 31.2286ZM23.9062 11.5411L28.537 16.1719H23.9062V11.5411ZM23.2031 32.0527L21.3848 30.2344L37.9688 13.6505L39.787 15.4688L23.2031 32.0527ZM41.8106 13.4452L40.7812 14.4745L38.963 12.6562L39.9923 11.6269C40.1108 11.5032 40.2527 11.4045 40.4098 11.3364C40.5669 11.2684 40.736 11.2324 40.9072 11.2305C41.0784 11.2287 41.2482 11.2611 41.4068 11.3257C41.5653 11.3904 41.7093 11.4861 41.8304 11.6071C41.9514 11.7282 42.0471 11.8722 42.1118 12.0307C42.1764 12.1893 42.2088 12.3591 42.207 12.5303C42.2051 12.7015 42.1691 12.8706 42.1011 13.0277C42.033 13.1848 41.9343 13.3267 41.8106 13.4452Z" fill="white"/>
</svg>
